<svg width="94" height="95" viewBox="-20 -20 94 95" fill="none" xmlns="http://www.w3.org/2000/svg">
<g opacity="0.8" clip-path="url(#clip0_3783_4621)">
<mask id="path-1-outside-1_3783_4621" maskUnits="userSpaceOnUse" x="-3" y="1" width="69" height="64" fill="black">
<rect fill="white" x="-3" y="1" width="69" height="64"/>
<path d="M-1.64226 24.3462C-1.88759 24.3851 -2.05489 24.6156 -2.01596 24.8609C-1.97703 25.1062 -1.74657 25.2735 -1.50124 25.2346C-1.32587 25.2065 -0.258481 25.1073 0.675438 25.0205C1.37972 24.9551 2.00965 24.8965 2.14857 24.8784C2.94748 24.7743 3.72808 24.7032 4.49189 24.6627L4.39859 28.7022C3.59088 28.7462 2.76449 28.8235 1.91768 28.9369C1.86021 28.9446 1.38588 28.9993 0.831507 29.0632C0.00326172 29.1588 -1.01298 29.2761 -1.21627 29.3086C-1.4616 29.3475 -1.62891 29.578 -1.58997 29.8233C-1.55104 30.0686 -1.32058 30.236 -1.07525 30.197C-0.929732 30.1737 0.0969335 30.0553 0.933741 29.9587C1.43993 29.9003 1.87292 29.8504 2.03402 29.8288C7.49083 29.0987 12.0741 29.9047 16.2597 31.5137C20.329 33.078 24.0491 35.4139 27.8305 37.8382C27.8064 37.8629 27.7822 37.8875 27.758 37.912C24.2019 41.5094 19.6935 43.9419 15.0574 46.4433C11.7629 48.2208 8.40477 50.0329 5.25519 52.3278C4.35082 52.2097 2.26431 51.7309 0.580775 51.3444C-0.259553 51.1516 -0.998976 50.9818 -1.4703 50.886C-1.71367 50.8364 -1.95124 50.9934 -2.00089 51.2368C-2.05054 51.4802 -1.89348 51.7177 -1.6501 51.7674C-1.22873 51.8531 -0.475873 52.0259 0.379831 52.2223C1.6655 52.5174 3.18448 52.866 4.26386 53.0722C3.33912 53.788 2.43544 54.5509 1.56011 55.373C0.918995 55.975 0.643691 56.4174 0.659688 56.915C0.675324 57.4007 0.967472 57.8142 1.46561 58.4007C1.6863 58.6605 2.01407 58.9467 2.36187 59.1883C2.69553 59.42 3.05722 59.618 3.37416 59.7229C3.95866 59.9163 4.46721 59.7951 4.87351 59.581C5.2464 59.3846 5.51418 59.1169 5.66886 58.9618C5.79732 58.8329 5.92654 58.7055 6.05648 58.5794C10.9056 59.3117 15.97 59.4531 20.9372 58.96C25.7502 58.4823 30.469 57.4089 34.8091 55.7005C34.9622 55.6403 34.9932 55.6283 35.023 55.6168C35.2691 55.522 35.5062 55.4306 35.7231 55.327C38.3533 57.5943 38.7667 59.8893 39.2072 62.3359C39.2937 62.817 39.3813 63.3035 39.4791 63.7676L40.3605 63.5843C40.2564 63.0901 40.1737 62.6311 40.0921 62.1773C39.6309 59.6156 39.1978 57.2097 36.4741 54.7889C36.6756 54.5478 36.8016 54.2364 36.8175 53.8074C36.8475 52.9967 36.7765 51.5204 36.5307 50.2897C36.4013 49.6422 36.2182 49.0488 35.9672 48.6189C36.3585 48.3481 36.714 48.0458 37.0354 47.7164C37.5336 47.2059 37.9498 46.6316 38.2915 46.0102C38.5784 45.4884 38.8133 44.932 39.0007 44.3511C40.7622 45.1776 42.6046 45.9145 44.5586 46.5163C44.5605 46.5678 44.5631 46.6165 44.5656 46.665L44.5706 46.7599C44.6343 48.155 45.6158 49.1794 47.0165 50.0198C46.8487 50.3703 46.7616 50.945 46.9053 51.5149C47.0179 51.9613 47.2663 52.4137 47.7182 52.77L47.7185 52.7696C47.7426 52.7885 47.769 52.8052 47.7975 52.8193L56.4094 57.0711C56.8482 57.3533 57.2155 57.5037 57.5986 57.4908C58.0061 57.4771 58.3699 57.2873 58.7754 56.8868C60.6081 55.0769 62.8455 51.9008 64.0755 47.7773C64.9767 44.7559 65.34 41.2227 64.6123 37.34L64.6121 37.34C63.7523 31.9337 61.6503 27.0576 58.8676 22.9625C55.739 18.3585 51.7491 14.7396 47.6958 12.4621C47.279 12.2279 46.9466 11.9472 46.7522 11.6178C46.5906 11.344 46.5228 11.0265 46.5821 10.6616C46.8898 8.769 46.7875 7.31568 46.3831 5.99342C45.9812 4.67914 45.2911 3.52285 44.4131 2.20177C44.2758 1.99442 43.9964 1.93759 43.7891 2.07486C43.5817 2.21212 43.5249 2.49151 43.6622 2.69886C44.5 3.95953 45.1558 5.05398 45.5229 6.25431C45.8876 7.44666 45.9774 8.772 45.6937 10.517C45.5978 11.1068 45.7103 11.625 45.9766 12.0762C46.2574 12.552 46.7059 12.9397 47.2551 13.2483C51.1964 15.4629 55.0778 18.9844 58.1237 23.4667C60.8386 27.462 62.8889 32.2192 63.7256 37.4934L63.7278 37.5056L63.7274 37.5057C64.4254 41.2301 64.0766 44.6203 63.2117 47.5199C62.0308 51.4791 59.8933 54.518 58.1444 56.2451C57.9091 56.4775 57.7311 56.5864 57.5704 56.5918C57.3924 56.5978 57.1715 56.4937 56.8745 56.3006C56.8595 56.2908 56.8442 56.2822 56.8286 56.2744L56.8287 56.2741L48.2432 52.0354C47.9878 51.8223 47.8455 51.5576 47.7796 51.2963C47.6959 50.9641 47.7273 50.6503 47.8062 50.4546C48.935 51.0286 50.242 51.5211 51.5297 52.0062C53.1537 52.6179 54.7446 53.2172 55.834 53.931C56.0424 54.0673 56.3218 54.0089 56.458 53.8006C56.5943 53.5922 56.5359 53.3128 56.3276 53.1766C55.1601 52.4116 53.5206 51.794 51.847 51.1636C48.7669 50.0034 45.5644 48.797 45.4696 46.7211L45.4695 46.7192C45.7896 46.7881 46.1015 46.8278 46.4127 46.8674C47.4865 47.0041 48.5518 47.1397 49.7406 48.7379C49.8885 48.9375 50.1703 48.9793 50.3699 48.8313C50.5694 48.6833 50.6113 48.4016 50.4633 48.202C50.437 48.1666 50.4107 48.132 50.3845 48.0978C51.2427 47.6588 52.6841 47.8051 54.0094 47.9397C54.7219 48.012 55.4031 48.0812 55.9877 48.0601C56.0529 48.0611 56.1193 48.0478 56.1824 48.0187C56.5882 47.8315 57.089 47.4168 57.5507 46.882C58.0403 46.3151 58.4999 45.6013 58.7668 44.8724C59.0524 44.0925 59.1236 43.2858 58.8012 42.5872C58.675 42.3137 58.49 42.061 58.236 41.8378C58.217 41.8198 58.1962 41.8031 58.1735 41.7881C57.6665 41.4504 57.2096 41.5195 56.7803 41.7992C56.4421 42.0196 56.1522 42.3676 55.8684 42.7239C55.2911 43.4487 54.5686 44.0563 53.7481 44.4815C52.9824 44.8784 52.1324 45.117 51.2369 45.1444C51.216 45.1438 51.1947 45.1446 51.1733 45.1469C50.4877 45.2225 48.8038 44.615 47.656 43.8199C47.3019 43.5746 47.0091 43.316 46.8297 43.0617C46.6977 42.8745 46.6362 42.7016 46.679 42.5601C46.7252 42.4077 46.883 42.2478 47.1856 42.0842C47.192 42.081 47.1982 42.0777 47.2044 42.0743C47.5469 41.9003 48.5045 42.0769 49.3923 42.2406C50.0598 42.3637 50.6924 42.4804 51.1313 42.4503C51.1988 42.4471 51.2665 42.4285 51.3294 42.3933C52.6876 41.63 53.3851 40.2956 54.0331 39.0561C54.6466 37.8825 55.2094 36.8057 56.2187 36.6153C57.2498 36.4199 58.139 36.4892 58.9045 36.759C59.7499 37.0569 60.4555 37.6039 61.0425 38.3118C61.2012 38.5036 61.4853 38.5305 61.6771 38.3718C61.8688 38.2131 61.8957 37.929 61.737 37.7372C61.0503 36.909 60.2154 36.2658 59.2042 35.9094C58.2938 35.5885 57.2494 35.5037 56.0529 35.7304C55.7896 35.7801 55.5524 35.8631 55.3361 35.974C55.0052 35.3652 54.5765 34.8566 54.0451 34.4193C53.3933 33.8828 52.5959 33.4612 51.6409 33.0975C51.0703 32.8801 50.3981 32.6341 49.7155 32.3843C44.787 30.5807 39.2785 28.5642 35.8795 23.1925C36.237 21.7618 36.3051 20.2714 36.2145 18.7443C36.397 15.829 39.3949 14.5332 42.2896 13.2824L42.5254 13.1804C42.7532 13.0821 42.8582 12.8177 42.7599 12.5899C42.6616 12.3621 42.3972 12.2571 42.1694 12.3554L41.9335 12.4574C39.5636 13.4815 37.1297 14.5332 35.9819 16.4722C35.8289 15.3632 35.6279 14.2412 35.4259 13.1146C34.7832 9.52949 34.1317 5.89539 35.066 2.57194L34.1987 2.32869C33.2097 5.8469 33.8799 9.58528 34.541 13.2732C35.4343 18.2564 36.3099 23.144 32.8485 27.0187C32.5409 26.6267 32.2489 26.2374 31.9808 25.8509C31.3685 24.9681 30.8865 24.1069 30.639 23.2746C30.5689 23.0361 30.3187 22.8996 30.0802 22.9697C29.8417 23.0398 29.7052 23.2899 29.7753 23.5285C30.0534 24.4638 30.5784 25.4074 31.2405 26.3621C31.8425 27.23 32.5631 28.1131 33.3137 29.0089C32.7498 30.5968 31.9666 32.2081 31.0238 33.7277L31.0039 33.7597C30.294 33.3131 29.6547 32.906 29.0179 32.5004C20.9979 27.393 13.3355 22.5134 2.03224 23.9865C1.90047 24.0037 1.28381 24.061 0.594348 24.125C-0.357159 24.2135 -1.44464 24.3145 -1.64226 24.3462ZM32.5004 32.9833L35.3268 35.811C35.1636 36.0729 34.9959 36.3356 34.8246 36.5998L34.8242 36.5996C34.4178 37.2143 33.8841 37.9283 33.3544 38.5677C32.8683 39.1545 32.3925 39.6705 32.0332 39.9757L32.0197 39.9872L32.0032 40.0039C31.3384 40.6791 30.6405 41.3138 29.9149 41.916L27.4543 39.4543C27.7756 39.1589 28.0909 38.8554 28.3996 38.5431C29.6544 37.2737 30.8052 35.7855 31.7888 34.2001C32.037 33.8001 32.2746 33.3938 32.5004 32.9833ZM35.6287 35.3174L32.778 32.4654C33.3098 31.4466 33.7682 30.407 34.138 29.376C34.525 29.4314 34.9221 29.611 35.2932 29.8675C35.7638 30.1926 36.1853 30.6366 36.4936 31.1112C36.7904 31.568 36.9772 32.0427 36.9922 32.4497C37.0002 32.6656 36.9579 32.8579 36.854 33.0082C36.8383 33.031 36.825 33.0547 36.814 33.079L36.8135 33.0787C36.5312 33.7051 36.2218 34.2955 35.8923 34.8689C35.8063 35.0186 35.7184 35.168 35.6287 35.3174ZM27.0361 39.8316L29.4767 42.2732C27.9111 43.5266 26.2251 44.6404 24.4701 45.6914L22.1937 43.414C23.9011 42.3317 25.5307 41.1633 27.0361 39.8316ZM21.7047 43.7203L23.971 45.9877C22.4444 46.8857 20.87 47.7424 19.2808 48.607C19.0404 48.7378 18.7997 48.8688 18.5588 49.0001L16.3361 46.7764C18.1685 45.7852 19.9737 44.7926 21.7047 43.7203ZM15.8197 47.0553L18.0443 49.2809C16.257 50.2584 14.4614 51.262 12.7008 52.362L10.4006 50.0608C12.0855 49.0702 13.7932 48.1488 15.484 47.2365L15.8197 47.0553ZM9.90127 50.3569L12.2131 52.6698C10.5387 53.7375 8.89971 54.899 7.33381 56.2153L4.86531 53.7457C6.48749 52.4943 8.18038 51.3862 9.90127 50.3569ZM4.41921 54.095L6.90466 56.5816C6.26623 57.1349 5.64068 57.7153 5.03075 58.3272C4.91241 58.4459 4.70771 58.6506 4.45398 58.7843C4.23368 58.9003 3.96136 58.9672 3.6562 58.8662C3.42448 58.7895 3.14454 58.634 2.8766 58.4479C2.58691 58.2467 2.32203 58.0179 2.15308 57.819C1.78223 57.3824 1.56545 57.097 1.55869 56.8868C1.55232 56.6887 1.74115 56.4381 2.17708 56.0287C2.90445 55.3456 3.65342 54.7035 4.41921 54.095ZM5.05457 24.6382C7.88162 24.5427 10.4783 24.8683 12.9215 25.4936L12.5002 29.4085C10.1533 28.8572 7.66192 28.58 4.96129 28.6767L5.05457 24.6382ZM13.4718 25.6402C16.0112 26.3429 18.3881 27.3654 20.6908 28.5684L19.9854 32.1792C18.8754 31.6283 17.7439 31.1218 16.5805 30.6746C15.4361 30.2347 14.2628 29.8529 13.0517 29.5436L13.4718 25.6402ZM21.2111 28.8442C23.4901 30.0666 25.7026 31.4564 27.9355 32.8769L26.9765 36.2244C24.8461 34.8726 22.7172 33.573 20.5081 32.4426L21.2111 28.8442ZM28.4313 33.1924L28.5349 33.2584C29.2122 33.6897 29.8919 34.1225 30.5152 34.5152C29.8839 35.4548 29.1927 36.3494 28.4566 37.1697C28.1281 36.959 27.8001 36.7489 27.4723 36.5398L28.4313 33.1924ZM6.8983 57.7899C7.91348 56.8695 8.9675 56.0231 10.0484 55.2328L10.0481 58.1396C8.99129 58.0508 7.94031 57.9342 6.8983 57.7899ZM10.9475 54.5922C11.3892 54.2852 11.8348 53.9865 12.2834 53.695C16.2045 53.7226 20.1574 53.3718 23.9885 52.6276C27.7241 51.902 31.3474 50.8032 34.7173 49.3174C34.8838 49.244 35.0458 49.1655 35.2033 49.0824C35.3856 49.3943 35.532 49.8963 35.6458 50.4659C35.8788 51.6323 35.9466 53.0185 35.9185 53.7757C35.8985 54.3154 35.343 54.5295 34.6987 54.7778L34.4813 54.8615C30.2163 56.5403 25.579 57.5951 20.8491 58.0646C17.5633 58.3907 14.2314 58.4342 10.9471 58.2083L10.9475 54.5922ZM13.7218 52.7889C15.698 51.5802 17.7161 50.4821 19.7109 49.3967C24.3476 46.874 28.8603 44.4185 32.4919 40.7887C34.2997 41.8943 36.1623 42.963 38.1282 43.9315L38.1813 43.9576C38.0057 44.5255 37.7809 45.069 37.5018 45.5766C37.1974 46.1301 36.829 46.6393 36.3902 47.0889C36.1065 47.3796 35.7931 47.646 35.4483 47.8839C35.1166 48.1127 34.7525 48.3168 34.3541 48.4924C31.0454 49.9512 27.4876 51.0302 23.8193 51.7427C20.507 52.3862 17.1074 52.7315 13.7218 52.7889ZM33.1627 40.1413C33.4431 39.851 33.7459 39.5081 34.0489 39.1424C34.5056 38.5911 34.9682 37.9815 35.3568 37.4194C37.058 38.3695 38.8229 39.2631 40.687 40.0528C41.019 40.1934 41.354 40.3306 41.6919 40.464L40.0672 43.8507C39.547 43.6166 39.0337 43.374 38.5265 43.1241C36.6732 42.2111 34.8962 41.1964 33.1627 40.1413ZM35.8526 36.664C36.1343 36.2209 36.408 35.775 36.6714 35.3167C36.882 34.9502 37.0832 34.5809 37.2728 34.2058C37.4288 34.4783 37.572 34.7507 37.6997 35.0228C37.932 35.5175 38.1152 36.0169 38.2348 36.5212C38.3182 36.873 38.3908 37.2276 38.4513 37.5824C38.4793 37.7462 38.5048 37.9096 38.5279 38.0726C37.6195 37.6243 36.729 37.1524 35.8526 36.664ZM40.5811 44.0782L42.2174 40.6675C43.4411 41.1321 44.7055 41.5467 46.0186 41.8984C45.924 42.027 45.8571 42.161 45.8153 42.2992C45.714 42.6342 45.7608 42.9674 45.9196 43.2904C45.9181 43.2995 45.9169 43.3087 45.9161 43.318C45.8516 43.9995 45.7688 44.5098 45.6743 44.8918C45.5882 45.2395 45.4975 45.463 45.4057 45.6046C45.3775 45.6481 45.323 45.6759 45.259 45.6916C45.1346 45.7221 44.9919 45.709 44.8775 45.674C43.3873 45.2175 41.9596 44.6784 40.5811 44.0782ZM46.2506 45.9397C46.3595 45.7329 46.4605 45.4628 46.5486 45.1068C46.6087 44.864 46.6643 44.5757 46.7139 44.2332C46.8477 44.3453 46.9922 44.4545 47.1448 44.5603C48.4368 45.4553 50.4068 46.1312 51.2627 46.0433C52.3011 46.0114 53.2816 45.7374 54.1606 45.2818C55.0968 44.7966 55.919 44.1062 56.5735 43.2845C56.8111 42.9862 57.049 42.6979 57.2704 42.5537C57.3944 42.4729 57.5222 42.4473 57.6561 42.5263C57.8033 42.659 57.9105 42.8066 57.9833 42.9644C58.1932 43.4193 58.1305 43.9893 57.9207 44.5622C57.6923 45.1861 57.2949 45.8015 56.8703 46.2933C56.5215 46.6972 56.1647 47.0092 55.8801 47.1631C55.3705 47.1734 54.7476 47.1102 54.0976 47.0442C52.5616 46.8882 50.8846 46.718 49.7848 47.4044C48.6378 46.2446 47.5852 46.1104 46.5255 45.9755C46.4339 45.9638 46.3422 45.9522 46.2506 45.9397ZM39.4925 38.5362C39.4522 38.1584 39.4009 37.7894 39.3397 37.4308C39.2744 37.0478 39.1983 36.6745 39.1127 36.3131C38.9806 35.756 38.7755 35.1987 38.5141 34.6421C38.2936 34.1724 38.0344 33.7073 37.7462 33.2464C37.8568 32.9925 37.9021 32.7125 37.8912 32.418C37.87 31.8428 37.6292 31.2078 37.2481 30.6212C36.8785 30.0524 36.3717 29.5191 35.8044 29.1271C35.2535 28.7464 34.6402 28.4948 34.0274 28.4621C33.8219 28.2169 33.6186 27.9727 33.4194 27.7296C34.416 26.6452 35.0943 25.4985 35.5367 24.304C39.1132 29.4628 44.5368 31.4476 49.4088 33.2304C50.0291 33.4574 50.6398 33.6809 51.3201 33.9401C52.1908 34.2717 52.9068 34.647 53.474 35.1138C53.9467 35.5029 54.322 35.961 54.6048 36.5181C54.0574 37.0695 53.657 37.8354 53.2363 38.6401C52.6649 39.7332 52.0509 40.9076 50.9793 41.5542C50.6377 41.5555 50.1093 41.4581 49.5545 41.3557C48.6055 41.1807 47.588 40.9931 46.9502 41.2093C44.8636 40.6943 42.9034 40.0153 41.036 39.2243C40.5152 39.0036 40.0009 38.7739 39.4925 38.5362ZM41.007 14.647C41.1779 14.5707 41.3496 14.4958 41.5196 14.4178L41.7549 14.9305C41.5832 15.0091 41.41 15.0848 41.2376 15.1618L41.007 14.647ZM36.6349 19.7368L36.6428 19.6816L36.6493 19.6392L36.6559 19.597L36.6628 19.555L36.67 19.5132L36.6773 19.4717L36.685 19.4304L36.6928 19.3893L36.7009 19.3484L36.7092 19.3077L36.7177 19.2673L36.7264 19.2271L36.7354 19.1871L36.7423 19.1575L37.2914 19.2864L37.2772 19.3488L37.2693 19.3855L37.2615 19.4224L37.2539 19.4595L37.2465 19.4968L37.2394 19.5343L37.2324 19.5721L37.2257 19.6101L37.2191 19.6483L37.2128 19.6867L37.2067 19.7254L37.2008 19.7643L37.1934 19.816L36.6349 19.7368ZM37.3997 17.5121L37.4359 17.4523C37.4664 17.4031 37.4972 17.3545 37.5289 17.3061C37.5479 17.2775 37.567 17.2491 37.5863 17.2207C37.6335 17.1522 37.6817 17.0847 37.7318 17.0183L38.1811 17.3594C38.0739 17.5014 37.9757 17.6487 37.884 17.8012L37.3997 17.5121ZM38.9909 15.7798C39.1477 15.6631 39.3081 15.5531 39.473 15.4483L39.7741 15.9253C39.6211 16.0225 39.4723 16.1246 39.3268 16.2329L38.9909 15.7798ZM14.8327 42.4775C14.9562 42.3832 14.9799 42.2066 14.8856 42.0831C14.7913 41.9596 14.6147 41.9359 14.4912 42.0302C14.127 42.3082 13.606 42.6238 12.9878 42.8344C12.5224 42.9929 12.0029 43.0916 11.4562 43.0687C11.301 43.0626 11.1703 43.1835 11.1642 43.3386C11.1581 43.4938 11.279 43.6245 11.4341 43.6306C12.0577 43.6567 12.6452 43.5459 13.1685 43.3676C13.853 43.1344 14.4297 42.7851 14.8327 42.4775ZM14.8396 41.0989C15.0372 40.948 15.0751 40.6654 14.9242 40.4678C14.7733 40.2702 14.4908 40.2323 14.2932 40.3832C13.9407 40.6523 13.4364 40.9578 12.838 41.1616C12.39 41.3142 11.8909 41.4092 11.3672 41.3873C11.119 41.3776 10.9098 41.5709 10.9001 41.8192C10.8903 42.0674 11.0837 42.2766 11.332 42.2863C11.9786 42.3134 12.5865 42.1989 13.1271 42.0148C13.8316 41.7748 14.425 41.4154 14.8396 41.0989ZM14.5304 54.4563C14.0727 54.4563 13.6563 54.6362 13.3531 54.9269C13.0457 55.2217 12.8555 55.6297 12.8555 56.0809C12.8555 56.5321 13.0457 56.9401 13.3531 57.2349C13.6563 57.5256 14.0727 57.7054 14.5304 57.7054C14.988 57.7054 15.4044 57.5256 15.7077 57.2349C16.0151 56.9401 16.2053 56.5321 16.2053 56.0809C16.2053 55.6297 16.0151 55.2217 15.7077 54.9269C15.4044 54.6362 14.988 54.4563 14.5304 54.4563ZM13.9771 55.5756C14.1168 55.4417 14.3122 55.3589 14.5304 55.3589C14.7485 55.3589 14.944 55.4417 15.0836 55.5756C15.219 55.7054 15.3028 55.8841 15.3028 56.0809C15.3028 56.2777 15.219 56.4564 15.0836 56.5862C14.944 56.7201 14.7485 56.8029 14.5304 56.8029C14.3122 56.8029 14.1168 56.7201 13.9771 56.5862C13.8418 56.4564 13.758 56.2777 13.758 56.0809C13.758 55.8841 13.8418 55.7054 13.9771 55.5756Z"/>
</mask>
<path d="M-1.64226 24.3462C-1.88759 24.3851 -2.05489 24.6156 -2.01596 24.8609C-1.97703 25.1062 -1.74657 25.2735 -1.50124 25.2346C-1.32587 25.2065 -0.258481 25.1073 0.675438 25.0205C1.37972 24.9551 2.00965 24.8965 2.14857 24.8784C2.94748 24.7743 3.72808 24.7032 4.49189 24.6627L4.39859 28.7022C3.59088 28.7462 2.76449 28.8235 1.91768 28.9369C1.86021 28.9446 1.38588 28.9993 0.831507 29.0632C0.00326172 29.1588 -1.01298 29.2761 -1.21627 29.3086C-1.4616 29.3475 -1.62891 29.578 -1.58997 29.8233C-1.55104 30.0686 -1.32058 30.236 -1.07525 30.197C-0.929732 30.1737 0.0969335 30.0553 0.933741 29.9587C1.43993 29.9003 1.87292 29.8504 2.03402 29.8288C7.49083 29.0987 12.0741 29.9047 16.2597 31.5137C20.329 33.078 24.0491 35.4139 27.8305 37.8382C27.8064 37.8629 27.7822 37.8875 27.758 37.912C24.2019 41.5094 19.6935 43.9419 15.0574 46.4433C11.7629 48.2208 8.40477 50.0329 5.25519 52.3278C4.35082 52.2097 2.26431 51.7309 0.580775 51.3444C-0.259553 51.1516 -0.998976 50.9818 -1.4703 50.886C-1.71367 50.8364 -1.95124 50.9934 -2.00089 51.2368C-2.05054 51.4802 -1.89348 51.7177 -1.6501 51.7674C-1.22873 51.8531 -0.475873 52.0259 0.379831 52.2223C1.6655 52.5174 3.18448 52.866 4.26386 53.0722C3.33912 53.788 2.43544 54.5509 1.56011 55.373C0.918995 55.975 0.643691 56.4174 0.659688 56.915C0.675324 57.4007 0.967472 57.8142 1.46561 58.4007C1.6863 58.6605 2.01407 58.9467 2.36187 59.1883C2.69553 59.42 3.05722 59.618 3.37416 59.7229C3.95866 59.9163 4.46721 59.7951 4.87351 59.581C5.2464 59.3846 5.51418 59.1169 5.66886 58.9618C5.79732 58.8329 5.92654 58.7055 6.05648 58.5794C10.9056 59.3117 15.97 59.4531 20.9372 58.96C25.7502 58.4823 30.469 57.4089 34.8091 55.7005C34.9622 55.6403 34.9932 55.6283 35.023 55.6168C35.2691 55.522 35.5062 55.4306 35.7231 55.327C38.3533 57.5943 38.7667 59.8893 39.2072 62.3359C39.2937 62.817 39.3813 63.3035 39.4791 63.7676L40.3605 63.5843C40.2564 63.0901 40.1737 62.6311 40.0921 62.1773C39.6309 59.6156 39.1978 57.2097 36.4741 54.7889C36.6756 54.5478 36.8016 54.2364 36.8175 53.8074C36.8475 52.9967 36.7765 51.5204 36.5307 50.2897C36.4013 49.6422 36.2182 49.0488 35.9672 48.6189C36.3585 48.3481 36.714 48.0458 37.0354 47.7164C37.5336 47.2059 37.9498 46.6316 38.2915 46.0102C38.5784 45.4884 38.8133 44.932 39.0007 44.3511C40.7622 45.1776 42.6046 45.9145 44.5586 46.5163C44.5605 46.5678 44.5631 46.6165 44.5656 46.665L44.5706 46.7599C44.6343 48.155 45.6158 49.1794 47.0165 50.0198C46.8487 50.3703 46.7616 50.945 46.9053 51.5149C47.0179 51.9613 47.2663 52.4137 47.7182 52.77L47.7185 52.7696C47.7426 52.7885 47.769 52.8052 47.7975 52.8193L56.4094 57.0711C56.8482 57.3533 57.2155 57.5037 57.5986 57.4908C58.0061 57.4771 58.3699 57.2873 58.7754 56.8868C60.6081 55.0769 62.8455 51.9008 64.0755 47.7773C64.9767 44.7559 65.34 41.2227 64.6123 37.34L64.6121 37.34C63.7523 31.9337 61.6503 27.0576 58.8676 22.9625C55.739 18.3585 51.7491 14.7396 47.6958 12.4621C47.279 12.2279 46.9466 11.9472 46.7522 11.6178C46.5906 11.344 46.5228 11.0265 46.5821 10.6616C46.8898 8.769 46.7875 7.31568 46.3831 5.99342C45.9812 4.67914 45.2911 3.52285 44.4131 2.20177C44.2758 1.99442 43.9964 1.93759 43.7891 2.07486C43.5817 2.21212 43.5249 2.49151 43.6622 2.69886C44.5 3.95953 45.1558 5.05398 45.5229 6.25431C45.8876 7.44666 45.9774 8.772 45.6937 10.517C45.5978 11.1068 45.7103 11.625 45.9766 12.0762C46.2574 12.552 46.7059 12.9397 47.2551 13.2483C51.1964 15.4629 55.0778 18.9844 58.1237 23.4667C60.8386 27.462 62.8889 32.2192 63.7256 37.4934L63.7278 37.5056L63.7274 37.5057C64.4254 41.2301 64.0766 44.6203 63.2117 47.5199C62.0308 51.4791 59.8933 54.518 58.1444 56.2451C57.9091 56.4775 57.7311 56.5864 57.5704 56.5918C57.3924 56.5978 57.1715 56.4937 56.8745 56.3006C56.8595 56.2908 56.8442 56.2822 56.8286 56.2744L56.8287 56.2741L48.2432 52.0354C47.9878 51.8223 47.8455 51.5576 47.7796 51.2963C47.6959 50.9641 47.7273 50.6503 47.8062 50.4546C48.935 51.0286 50.242 51.5211 51.5297 52.0062C53.1537 52.6179 54.7446 53.2172 55.834 53.931C56.0424 54.0673 56.3218 54.0089 56.458 53.8006C56.5943 53.5922 56.5359 53.3128 56.3276 53.1766C55.1601 52.4116 53.5206 51.794 51.847 51.1636C48.7669 50.0034 45.5644 48.797 45.4696 46.7211L45.4695 46.7192C45.7896 46.7881 46.1015 46.8278 46.4127 46.8674C47.4865 47.0041 48.5518 47.1397 49.7406 48.7379C49.8885 48.9375 50.1703 48.9793 50.3699 48.8313C50.5694 48.6833 50.6113 48.4016 50.4633 48.202C50.437 48.1666 50.4107 48.132 50.3845 48.0978C51.2427 47.6588 52.6841 47.8051 54.0094 47.9397C54.7219 48.012 55.4031 48.0812 55.9877 48.0601C56.0529 48.0611 56.1193 48.0478 56.1824 48.0187C56.5882 47.8315 57.089 47.4168 57.5507 46.882C58.0403 46.3151 58.4999 45.6013 58.7668 44.8724C59.0524 44.0925 59.1236 43.2858 58.8012 42.5872C58.675 42.3137 58.49 42.061 58.236 41.8378C58.217 41.8198 58.1962 41.8031 58.1735 41.7881C57.6665 41.4504 57.2096 41.5195 56.7803 41.7992C56.4421 42.0196 56.1522 42.3676 55.8684 42.7239C55.2911 43.4487 54.5686 44.0563 53.7481 44.4815C52.9824 44.8784 52.1324 45.117 51.2369 45.1444C51.216 45.1438 51.1947 45.1446 51.1733 45.1469C50.4877 45.2225 48.8038 44.615 47.656 43.8199C47.3019 43.5746 47.0091 43.316 46.8297 43.0617C46.6977 42.8745 46.6362 42.7016 46.679 42.5601C46.7252 42.4077 46.883 42.2478 47.1856 42.0842C47.192 42.081 47.1982 42.0777 47.2044 42.0743C47.5469 41.9003 48.5045 42.0769 49.3923 42.2406C50.0598 42.3637 50.6924 42.4804 51.1313 42.4503C51.1988 42.4471 51.2665 42.4285 51.3294 42.3933C52.6876 41.63 53.3851 40.2956 54.0331 39.0561C54.6466 37.8825 55.2094 36.8057 56.2187 36.6153C57.2498 36.4199 58.139 36.4892 58.9045 36.759C59.7499 37.0569 60.4555 37.6039 61.0425 38.3118C61.2012 38.5036 61.4853 38.5305 61.6771 38.3718C61.8688 38.2131 61.8957 37.929 61.737 37.7372C61.0503 36.909 60.2154 36.2658 59.2042 35.9094C58.2938 35.5885 57.2494 35.5037 56.0529 35.7304C55.7896 35.7801 55.5524 35.8631 55.3361 35.974C55.0052 35.3652 54.5765 34.8566 54.0451 34.4193C53.3933 33.8828 52.5959 33.4612 51.6409 33.0975C51.0703 32.8801 50.3981 32.6341 49.7155 32.3843C44.787 30.5807 39.2785 28.5642 35.8795 23.1925C36.237 21.7618 36.3051 20.2714 36.2145 18.7443C36.397 15.829 39.3949 14.5332 42.2896 13.2824L42.5254 13.1804C42.7532 13.0821 42.8582 12.8177 42.7599 12.5899C42.6616 12.3621 42.3972 12.2571 42.1694 12.3554L41.9335 12.4574C39.5636 13.4815 37.1297 14.5332 35.9819 16.4722C35.8289 15.3632 35.6279 14.2412 35.4259 13.1146C34.7832 9.52949 34.1317 5.89539 35.066 2.57194L34.1987 2.32869C33.2097 5.8469 33.8799 9.58528 34.541 13.2732C35.4343 18.2564 36.3099 23.144 32.8485 27.0187C32.5409 26.6267 32.2489 26.2374 31.9808 25.8509C31.3685 24.9681 30.8865 24.1069 30.639 23.2746C30.5689 23.0361 30.3187 22.8996 30.0802 22.9697C29.8417 23.0398 29.7052 23.2899 29.7753 23.5285C30.0534 24.4638 30.5784 25.4074 31.2405 26.3621C31.8425 27.23 32.5631 28.1131 33.3137 29.0089C32.7498 30.5968 31.9666 32.2081 31.0238 33.7277L31.0039 33.7597C30.294 33.3131 29.6547 32.906 29.0179 32.5004C20.9979 27.393 13.3355 22.5134 2.03224 23.9865C1.90047 24.0037 1.28381 24.061 0.594348 24.125C-0.357159 24.2135 -1.44464 24.3145 -1.64226 24.3462ZM32.5004 32.9833L35.3268 35.811C35.1636 36.0729 34.9959 36.3356 34.8246 36.5998L34.8242 36.5996C34.4178 37.2143 33.8841 37.9283 33.3544 38.5677C32.8683 39.1545 32.3925 39.6705 32.0332 39.9757L32.0197 39.9872L32.0032 40.0039C31.3384 40.6791 30.6405 41.3138 29.9149 41.916L27.4543 39.4543C27.7756 39.1589 28.0909 38.8554 28.3996 38.5431C29.6544 37.2737 30.8052 35.7855 31.7888 34.2001C32.037 33.8001 32.2746 33.3938 32.5004 32.9833ZM35.6287 35.3174L32.778 32.4654C33.3098 31.4466 33.7682 30.407 34.138 29.376C34.525 29.4314 34.9221 29.611 35.2932 29.8675C35.7638 30.1926 36.1853 30.6366 36.4936 31.1112C36.7904 31.568 36.9772 32.0427 36.9922 32.4497C37.0002 32.6656 36.9579 32.8579 36.854 33.0082C36.8383 33.031 36.825 33.0547 36.814 33.079L36.8135 33.0787C36.5312 33.7051 36.2218 34.2955 35.8923 34.8689C35.8063 35.0186 35.7184 35.168 35.6287 35.3174ZM27.0361 39.8316L29.4767 42.2732C27.9111 43.5266 26.2251 44.6404 24.4701 45.6914L22.1937 43.414C23.9011 42.3317 25.5307 41.1633 27.0361 39.8316ZM21.7047 43.7203L23.971 45.9877C22.4444 46.8857 20.87 47.7424 19.2808 48.607C19.0404 48.7378 18.7997 48.8688 18.5588 49.0001L16.3361 46.7764C18.1685 45.7852 19.9737 44.7926 21.7047 43.7203ZM15.8197 47.0553L18.0443 49.2809C16.257 50.2584 14.4614 51.262 12.7008 52.362L10.4006 50.0608C12.0855 49.0702 13.7932 48.1488 15.484 47.2365L15.8197 47.0553ZM9.90127 50.3569L12.2131 52.6698C10.5387 53.7375 8.89971 54.899 7.33381 56.2153L4.86531 53.7457C6.48749 52.4943 8.18038 51.3862 9.90127 50.3569ZM4.41921 54.095L6.90466 56.5816C6.26623 57.1349 5.64068 57.7153 5.03075 58.3272C4.91241 58.4459 4.70771 58.6506 4.45398 58.7843C4.23368 58.9003 3.96136 58.9672 3.6562 58.8662C3.42448 58.7895 3.14454 58.634 2.8766 58.4479C2.58691 58.2467 2.32203 58.0179 2.15308 57.819C1.78223 57.3824 1.56545 57.097 1.55869 56.8868C1.55232 56.6887 1.74115 56.4381 2.17708 56.0287C2.90445 55.3456 3.65342 54.7035 4.41921 54.095ZM5.05457 24.6382C7.88162 24.5427 10.4783 24.8683 12.9215 25.4936L12.5002 29.4085C10.1533 28.8572 7.66192 28.58 4.96129 28.6767L5.05457 24.6382ZM13.4718 25.6402C16.0112 26.3429 18.3881 27.3654 20.6908 28.5684L19.9854 32.1792C18.8754 31.6283 17.7439 31.1218 16.5805 30.6746C15.4361 30.2347 14.2628 29.8529 13.0517 29.5436L13.4718 25.6402ZM21.2111 28.8442C23.4901 30.0666 25.7026 31.4564 27.9355 32.8769L26.9765 36.2244C24.8461 34.8726 22.7172 33.573 20.5081 32.4426L21.2111 28.8442ZM28.4313 33.1924L28.5349 33.2584C29.2122 33.6897 29.8919 34.1225 30.5152 34.5152C29.8839 35.4548 29.1927 36.3494 28.4566 37.1697C28.1281 36.959 27.8001 36.7489 27.4723 36.5398L28.4313 33.1924ZM6.8983 57.7899C7.91348 56.8695 8.9675 56.0231 10.0484 55.2328L10.0481 58.1396C8.99129 58.0508 7.94031 57.9342 6.8983 57.7899ZM10.9475 54.5922C11.3892 54.2852 11.8348 53.9865 12.2834 53.695C16.2045 53.7226 20.1574 53.3718 23.9885 52.6276C27.7241 51.902 31.3474 50.8032 34.7173 49.3174C34.8838 49.244 35.0458 49.1655 35.2033 49.0824C35.3856 49.3943 35.532 49.8963 35.6458 50.4659C35.8788 51.6323 35.9466 53.0185 35.9185 53.7757C35.8985 54.3154 35.343 54.5295 34.6987 54.7778L34.4813 54.8615C30.2163 56.5403 25.579 57.5951 20.8491 58.0646C17.5633 58.3907 14.2314 58.4342 10.9471 58.2083L10.9475 54.5922ZM13.7218 52.7889C15.698 51.5802 17.7161 50.4821 19.7109 49.3967C24.3476 46.874 28.8603 44.4185 32.4919 40.7887C34.2997 41.8943 36.1623 42.963 38.1282 43.9315L38.1813 43.9576C38.0057 44.5255 37.7809 45.069 37.5018 45.5766C37.1974 46.1301 36.829 46.6393 36.3902 47.0889C36.1065 47.3796 35.7931 47.646 35.4483 47.8839C35.1166 48.1127 34.7525 48.3168 34.3541 48.4924C31.0454 49.9512 27.4876 51.0302 23.8193 51.7427C20.507 52.3862 17.1074 52.7315 13.7218 52.7889ZM33.1627 40.1413C33.4431 39.851 33.7459 39.5081 34.0489 39.1424C34.5056 38.5911 34.9682 37.9815 35.3568 37.4194C37.058 38.3695 38.8229 39.2631 40.687 40.0528C41.019 40.1934 41.354 40.3306 41.6919 40.464L40.0672 43.8507C39.547 43.6166 39.0337 43.374 38.5265 43.1241C36.6732 42.2111 34.8962 41.1964 33.1627 40.1413ZM35.8526 36.664C36.1343 36.2209 36.408 35.775 36.6714 35.3167C36.882 34.9502 37.0832 34.5809 37.2728 34.2058C37.4288 34.4783 37.572 34.7507 37.6997 35.0228C37.932 35.5175 38.1152 36.0169 38.2348 36.5212C38.3182 36.873 38.3908 37.2276 38.4513 37.5824C38.4793 37.7462 38.5048 37.9096 38.5279 38.0726C37.6195 37.6243 36.729 37.1524 35.8526 36.664ZM40.5811 44.0782L42.2174 40.6675C43.4411 41.1321 44.7055 41.5467 46.0186 41.8984C45.924 42.027 45.8571 42.161 45.8153 42.2992C45.714 42.6342 45.7608 42.9674 45.9196 43.2904C45.9181 43.2995 45.9169 43.3087 45.9161 43.318C45.8516 43.9995 45.7688 44.5098 45.6743 44.8918C45.5882 45.2395 45.4975 45.463 45.4057 45.6046C45.3775 45.6481 45.323 45.6759 45.259 45.6916C45.1346 45.7221 44.9919 45.709 44.8775 45.674C43.3873 45.2175 41.9596 44.6784 40.5811 44.0782ZM46.2506 45.9397C46.3595 45.7329 46.4605 45.4628 46.5486 45.1068C46.6087 44.864 46.6643 44.5757 46.7139 44.2332C46.8477 44.3453 46.9922 44.4545 47.1448 44.5603C48.4368 45.4553 50.4068 46.1312 51.2627 46.0433C52.3011 46.0114 53.2816 45.7374 54.1606 45.2818C55.0968 44.7966 55.919 44.1062 56.5735 43.2845C56.8111 42.9862 57.049 42.6979 57.2704 42.5537C57.3944 42.4729 57.5222 42.4473 57.6561 42.5263C57.8033 42.659 57.9105 42.8066 57.9833 42.9644C58.1932 43.4193 58.1305 43.9893 57.9207 44.5622C57.6923 45.1861 57.2949 45.8015 56.8703 46.2933C56.5215 46.6972 56.1647 47.0092 55.8801 47.1631C55.3705 47.1734 54.7476 47.1102 54.0976 47.0442C52.5616 46.8882 50.8846 46.718 49.7848 47.4044C48.6378 46.2446 47.5852 46.1104 46.5255 45.9755C46.4339 45.9638 46.3422 45.9522 46.2506 45.9397ZM39.4925 38.5362C39.4522 38.1584 39.4009 37.7894 39.3397 37.4308C39.2744 37.0478 39.1983 36.6745 39.1127 36.3131C38.9806 35.756 38.7755 35.1987 38.5141 34.6421C38.2936 34.1724 38.0344 33.7073 37.7462 33.2464C37.8568 32.9925 37.9021 32.7125 37.8912 32.418C37.87 31.8428 37.6292 31.2078 37.2481 30.6212C36.8785 30.0524 36.3717 29.5191 35.8044 29.1271C35.2535 28.7464 34.6402 28.4948 34.0274 28.4621C33.8219 28.2169 33.6186 27.9727 33.4194 27.7296C34.416 26.6452 35.0943 25.4985 35.5367 24.304C39.1132 29.4628 44.5368 31.4476 49.4088 33.2304C50.0291 33.4574 50.6398 33.6809 51.3201 33.9401C52.1908 34.2717 52.9068 34.647 53.474 35.1138C53.9467 35.5029 54.322 35.961 54.6048 36.5181C54.0574 37.0695 53.657 37.8354 53.2363 38.6401C52.6649 39.7332 52.0509 40.9076 50.9793 41.5542C50.6377 41.5555 50.1093 41.4581 49.5545 41.3557C48.6055 41.1807 47.588 40.9931 46.9502 41.2093C44.8636 40.6943 42.9034 40.0153 41.036 39.2243C40.5152 39.0036 40.0009 38.7739 39.4925 38.5362ZM41.007 14.647C41.1779 14.5707 41.3496 14.4958 41.5196 14.4178L41.7549 14.9305C41.5832 15.0091 41.41 15.0848 41.2376 15.1618L41.007 14.647ZM36.6349 19.7368L36.6428 19.6816L36.6493 19.6392L36.6559 19.597L36.6628 19.555L36.67 19.5132L36.6773 19.4717L36.685 19.4304L36.6928 19.3893L36.7009 19.3484L36.7092 19.3077L36.7177 19.2673L36.7264 19.2271L36.7354 19.1871L36.7423 19.1575L37.2914 19.2864L37.2772 19.3488L37.2693 19.3855L37.2615 19.4224L37.2539 19.4595L37.2465 19.4968L37.2394 19.5343L37.2324 19.5721L37.2257 19.6101L37.2191 19.6483L37.2128 19.6867L37.2067 19.7254L37.2008 19.7643L37.1934 19.816L36.6349 19.7368ZM37.3997 17.5121L37.4359 17.4523C37.4664 17.4031 37.4972 17.3545 37.5289 17.3061C37.5479 17.2775 37.567 17.2491 37.5863 17.2207C37.6335 17.1522 37.6817 17.0847 37.7318 17.0183L38.1811 17.3594C38.0739 17.5014 37.9757 17.6487 37.884 17.8012L37.3997 17.5121ZM38.9909 15.7798C39.1477 15.6631 39.3081 15.5531 39.473 15.4483L39.7741 15.9253C39.6211 16.0225 39.4723 16.1246 39.3268 16.2329L38.9909 15.7798ZM14.8327 42.4775C14.9562 42.3832 14.9799 42.2066 14.8856 42.0831C14.7913 41.9596 14.6147 41.9359 14.4912 42.0302C14.127 42.3082 13.606 42.6238 12.9878 42.8344C12.5224 42.9929 12.0029 43.0916 11.4562 43.0687C11.301 43.0626 11.1703 43.1835 11.1642 43.3386C11.1581 43.4938 11.279 43.6245 11.4341 43.6306C12.0577 43.6567 12.6452 43.5459 13.1685 43.3676C13.853 43.1344 14.4297 42.7851 14.8327 42.4775ZM14.8396 41.0989C15.0372 40.948 15.0751 40.6654 14.9242 40.4678C14.7733 40.2702 14.4908 40.2323 14.2932 40.3832C13.9407 40.6523 13.4364 40.9578 12.838 41.1616C12.39 41.3142 11.8909 41.4092 11.3672 41.3873C11.119 41.3776 10.9098 41.5709 10.9001 41.8192C10.8903 42.0674 11.0837 42.2766 11.332 42.2863C11.9786 42.3134 12.5865 42.1989 13.1271 42.0148C13.8316 41.7748 14.425 41.4154 14.8396 41.0989ZM14.5304 54.4563C14.0727 54.4563 13.6563 54.6362 13.3531 54.9269C13.0457 55.2217 12.8555 55.6297 12.8555 56.0809C12.8555 56.5321 13.0457 56.9401 13.3531 57.2349C13.6563 57.5256 14.0727 57.7054 14.5304 57.7054C14.988 57.7054 15.4044 57.5256 15.7077 57.2349C16.0151 56.9401 16.2053 56.5321 16.2053 56.0809C16.2053 55.6297 16.0151 55.2217 15.7077 54.9269C15.4044 54.6362 14.988 54.4563 14.5304 54.4563ZM13.9771 55.5756C14.1168 55.4417 14.3122 55.3589 14.5304 55.3589C14.7485 55.3589 14.944 55.4417 15.0836 55.5756C15.219 55.7054 15.3028 55.8841 15.3028 56.0809C15.3028 56.2777 15.219 56.4564 15.0836 56.5862C14.944 56.7201 14.7485 56.8029 14.5304 56.8029C14.3122 56.8029 14.1168 56.7201 13.9771 56.5862C13.8418 56.4564 13.758 56.2777 13.758 56.0809C13.758 55.8841 13.8418 55.7054 13.9771 55.5756Z" fill="black"/>
<path d="M-1.64226 24.3462C-1.88759 24.3851 -2.05489 24.6156 -2.01596 24.8609C-1.97703 25.1062 -1.74657 25.2735 -1.50124 25.2346C-1.32587 25.2065 -0.258481 25.1073 0.675438 25.0205C1.37972 24.9551 2.00965 24.8965 2.14857 24.8784C2.94748 24.7743 3.72808 24.7032 4.49189 24.6627L4.39859 28.7022C3.59088 28.7462 2.76449 28.8235 1.91768 28.9369C1.86021 28.9446 1.38588 28.9993 0.831507 29.0632C0.00326172 29.1588 -1.01298 29.2761 -1.21627 29.3086C-1.4616 29.3475 -1.62891 29.578 -1.58997 29.8233C-1.55104 30.0686 -1.32058 30.236 -1.07525 30.197C-0.929732 30.1737 0.0969335 30.0553 0.933741 29.9587C1.43993 29.9003 1.87292 29.8504 2.03402 29.8288C7.49083 29.0987 12.0741 29.9047 16.2597 31.5137C20.329 33.078 24.0491 35.4139 27.8305 37.8382C27.8064 37.8629 27.7822 37.8875 27.758 37.912C24.2019 41.5094 19.6935 43.9419 15.0574 46.4433C11.7629 48.2208 8.40477 50.0329 5.25519 52.3278C4.35082 52.2097 2.26431 51.7309 0.580775 51.3444C-0.259553 51.1516 -0.998976 50.9818 -1.4703 50.886C-1.71367 50.8364 -1.95124 50.9934 -2.00089 51.2368C-2.05054 51.4802 -1.89348 51.7177 -1.6501 51.7674C-1.22873 51.8531 -0.475873 52.0259 0.379831 52.2223C1.6655 52.5174 3.18448 52.866 4.26386 53.0722C3.33912 53.788 2.43544 54.5509 1.56011 55.373C0.918995 55.975 0.643691 56.4174 0.659688 56.915C0.675324 57.4007 0.967472 57.8142 1.46561 58.4007C1.6863 58.6605 2.01407 58.9467 2.36187 59.1883C2.69553 59.42 3.05722 59.618 3.37416 59.7229C3.95866 59.9163 4.46721 59.7951 4.87351 59.581C5.2464 59.3846 5.51418 59.1169 5.66886 58.9618C5.79732 58.8329 5.92654 58.7055 6.05648 58.5794C10.9056 59.3117 15.97 59.4531 20.9372 58.96C25.7502 58.4823 30.469 57.4089 34.8091 55.7005C34.9622 55.6403 34.9932 55.6283 35.023 55.6168C35.2691 55.522 35.5062 55.4306 35.7231 55.327C38.3533 57.5943 38.7667 59.8893 39.2072 62.3359C39.2937 62.817 39.3813 63.3035 39.4791 63.7676L40.3605 63.5843C40.2564 63.0901 40.1737 62.6311 40.0921 62.1773C39.6309 59.6156 39.1978 57.2097 36.4741 54.7889C36.6756 54.5478 36.8016 54.2364 36.8175 53.8074C36.8475 52.9967 36.7765 51.5204 36.5307 50.2897C36.4013 49.6422 36.2182 49.0488 35.9672 48.6189C36.3585 48.3481 36.714 48.0458 37.0354 47.7164C37.5336 47.2059 37.9498 46.6316 38.2915 46.0102C38.5784 45.4884 38.8133 44.932 39.0007 44.3511C40.7622 45.1776 42.6046 45.9145 44.5586 46.5163C44.5605 46.5678 44.5631 46.6165 44.5656 46.665L44.5706 46.7599C44.6343 48.155 45.6158 49.1794 47.0165 50.0198C46.8487 50.3703 46.7616 50.945 46.9053 51.5149C47.0179 51.9613 47.2663 52.4137 47.7182 52.77L47.7185 52.7696C47.7426 52.7885 47.769 52.8052 47.7975 52.8193L56.4094 57.0711C56.8482 57.3533 57.2155 57.5037 57.5986 57.4908C58.0061 57.4771 58.3699 57.2873 58.7754 56.8868C60.6081 55.0769 62.8455 51.9008 64.0755 47.7773C64.9767 44.7559 65.34 41.2227 64.6123 37.34L64.6121 37.34C63.7523 31.9337 61.6503 27.0576 58.8676 22.9625C55.739 18.3585 51.7491 14.7396 47.6958 12.4621C47.279 12.2279 46.9466 11.9472 46.7522 11.6178C46.5906 11.344 46.5228 11.0265 46.5821 10.6616C46.8898 8.769 46.7875 7.31568 46.3831 5.99342C45.9812 4.67914 45.2911 3.52285 44.4131 2.20177C44.2758 1.99442 43.9964 1.93759 43.7891 2.07486C43.5817 2.21212 43.5249 2.49151 43.6622 2.69886C44.5 3.95953 45.1558 5.05398 45.5229 6.25431C45.8876 7.44666 45.9774 8.772 45.6937 10.517C45.5978 11.1068 45.7103 11.625 45.9766 12.0762C46.2574 12.552 46.7059 12.9397 47.2551 13.2483C51.1964 15.4629 55.0778 18.9844 58.1237 23.4667C60.8386 27.462 62.8889 32.2192 63.7256 37.4934L63.7278 37.5056L63.7274 37.5057C64.4254 41.2301 64.0766 44.6203 63.2117 47.5199C62.0308 51.4791 59.8933 54.518 58.1444 56.2451C57.9091 56.4775 57.7311 56.5864 57.5704 56.5918C57.3924 56.5978 57.1715 56.4937 56.8745 56.3006C56.8595 56.2908 56.8442 56.2822 56.8286 56.2744L56.8287 56.2741L48.2432 52.0354C47.9878 51.8223 47.8455 51.5576 47.7796 51.2963C47.6959 50.9641 47.7273 50.6503 47.8062 50.4546C48.935 51.0286 50.242 51.5211 51.5297 52.0062C53.1537 52.6179 54.7446 53.2172 55.834 53.931C56.0424 54.0673 56.3218 54.0089 56.458 53.8006C56.5943 53.5922 56.5359 53.3128 56.3276 53.1766C55.1601 52.4116 53.5206 51.794 51.847 51.1636C48.7669 50.0034 45.5644 48.797 45.4696 46.7211L45.4695 46.7192C45.7896 46.7881 46.1015 46.8278 46.4127 46.8674C47.4865 47.0041 48.5518 47.1397 49.7406 48.7379C49.8885 48.9375 50.1703 48.9793 50.3699 48.8313C50.5694 48.6833 50.6113 48.4016 50.4633 48.202C50.437 48.1666 50.4107 48.132 50.3845 48.0978C51.2427 47.6588 52.6841 47.8051 54.0094 47.9397C54.7219 48.012 55.4031 48.0812 55.9877 48.0601C56.0529 48.0611 56.1193 48.0478 56.1824 48.0187C56.5882 47.8315 57.089 47.4168 57.5507 46.882C58.0403 46.3151 58.4999 45.6013 58.7668 44.8724C59.0524 44.0925 59.1236 43.2858 58.8012 42.5872C58.675 42.3137 58.49 42.061 58.236 41.8378C58.217 41.8198 58.1962 41.8031 58.1735 41.7881C57.6665 41.4504 57.2096 41.5195 56.7803 41.7992C56.4421 42.0196 56.1522 42.3676 55.8684 42.7239C55.2911 43.4487 54.5686 44.0563 53.7481 44.4815C52.9824 44.8784 52.1324 45.117 51.2369 45.1444C51.216 45.1438 51.1947 45.1446 51.1733 45.1469C50.4877 45.2225 48.8038 44.615 47.656 43.8199C47.3019 43.5746 47.0091 43.316 46.8297 43.0617C46.6977 42.8745 46.6362 42.7016 46.679 42.5601C46.7252 42.4077 46.883 42.2478 47.1856 42.0842C47.192 42.081 47.1982 42.0777 47.2044 42.0743C47.5469 41.9003 48.5045 42.0769 49.3923 42.2406C50.0598 42.3637 50.6924 42.4804 51.1313 42.4503C51.1988 42.4471 51.2665 42.4285 51.3294 42.3933C52.6876 41.63 53.3851 40.2956 54.0331 39.0561C54.6466 37.8825 55.2094 36.8057 56.2187 36.6153C57.2498 36.4199 58.139 36.4892 58.9045 36.759C59.7499 37.0569 60.4555 37.6039 61.0425 38.3118C61.2012 38.5036 61.4853 38.5305 61.6771 38.3718C61.8688 38.2131 61.8957 37.929 61.737 37.7372C61.0503 36.909 60.2154 36.2658 59.2042 35.9094C58.2938 35.5885 57.2494 35.5037 56.0529 35.7304C55.7896 35.7801 55.5524 35.8631 55.3361 35.974C55.0052 35.3652 54.5765 34.8566 54.0451 34.4193C53.3933 33.8828 52.5959 33.4612 51.6409 33.0975C51.0703 32.8801 50.3981 32.6341 49.7155 32.3843C44.787 30.5807 39.2785 28.5642 35.8795 23.1925C36.237 21.7618 36.3051 20.2714 36.2145 18.7443C36.397 15.829 39.3949 14.5332 42.2896 13.2824L42.5254 13.1804C42.7532 13.0821 42.8582 12.8177 42.7599 12.5899C42.6616 12.3621 42.3972 12.2571 42.1694 12.3554L41.9335 12.4574C39.5636 13.4815 37.1297 14.5332 35.9819 16.4722C35.8289 15.3632 35.6279 14.2412 35.4259 13.1146C34.7832 9.52949 34.1317 5.89539 35.066 2.57194L34.1987 2.32869C33.2097 5.8469 33.8799 9.58528 34.541 13.2732C35.4343 18.2564 36.3099 23.144 32.8485 27.0187C32.5409 26.6267 32.2489 26.2374 31.9808 25.8509C31.3685 24.9681 30.8865 24.1069 30.639 23.2746C30.5689 23.0361 30.3187 22.8996 30.0802 22.9697C29.8417 23.0398 29.7052 23.2899 29.7753 23.5285C30.0534 24.4638 30.5784 25.4074 31.2405 26.3621C31.8425 27.23 32.5631 28.1131 33.3137 29.0089C32.7498 30.5968 31.9666 32.2081 31.0238 33.7277L31.0039 33.7597C30.294 33.3131 29.6547 32.906 29.0179 32.5004C20.9979 27.393 13.3355 22.5134 2.03224 23.9865C1.90047 24.0037 1.28381 24.061 0.594348 24.125C-0.357159 24.2135 -1.44464 24.3145 -1.64226 24.3462ZM32.5004 32.9833L35.3268 35.811C35.1636 36.0729 34.9959 36.3356 34.8246 36.5998L34.8242 36.5996C34.4178 37.2143 33.8841 37.9283 33.3544 38.5677C32.8683 39.1545 32.3925 39.6705 32.0332 39.9757L32.0197 39.9872L32.0032 40.0039C31.3384 40.6791 30.6405 41.3138 29.9149 41.916L27.4543 39.4543C27.7756 39.1589 28.0909 38.8554 28.3996 38.5431C29.6544 37.2737 30.8052 35.7855 31.7888 34.2001C32.037 33.8001 32.2746 33.3938 32.5004 32.9833ZM35.6287 35.3174L32.778 32.4654C33.3098 31.4466 33.7682 30.407 34.138 29.376C34.525 29.4314 34.9221 29.611 35.2932 29.8675C35.7638 30.1926 36.1853 30.6366 36.4936 31.1112C36.7904 31.568 36.9772 32.0427 36.9922 32.4497C37.0002 32.6656 36.9579 32.8579 36.854 33.0082C36.8383 33.031 36.825 33.0547 36.814 33.079L36.8135 33.0787C36.5312 33.7051 36.2218 34.2955 35.8923 34.8689C35.8063 35.0186 35.7184 35.168 35.6287 35.3174ZM27.0361 39.8316L29.4767 42.2732C27.9111 43.5266 26.2251 44.6404 24.4701 45.6914L22.1937 43.414C23.9011 42.3317 25.5307 41.1633 27.0361 39.8316ZM21.7047 43.7203L23.971 45.9877C22.4444 46.8857 20.87 47.7424 19.2808 48.607C19.0404 48.7378 18.7997 48.8688 18.5588 49.0001L16.3361 46.7764C18.1685 45.7852 19.9737 44.7926 21.7047 43.7203ZM15.8197 47.0553L18.0443 49.2809C16.257 50.2584 14.4614 51.262 12.7008 52.362L10.4006 50.0608C12.0855 49.0702 13.7932 48.1488 15.484 47.2365L15.8197 47.0553ZM9.90127 50.3569L12.2131 52.6698C10.5387 53.7375 8.89971 54.899 7.33381 56.2153L4.86531 53.7457C6.48749 52.4943 8.18038 51.3862 9.90127 50.3569ZM4.41921 54.095L6.90466 56.5816C6.26623 57.1349 5.64068 57.7153 5.03075 58.3272C4.91241 58.4459 4.70771 58.6506 4.45398 58.7843C4.23368 58.9003 3.96136 58.9672 3.6562 58.8662C3.42448 58.7895 3.14454 58.634 2.8766 58.4479C2.58691 58.2467 2.32203 58.0179 2.15308 57.819C1.78223 57.3824 1.56545 57.097 1.55869 56.8868C1.55232 56.6887 1.74115 56.4381 2.17708 56.0287C2.90445 55.3456 3.65342 54.7035 4.41921 54.095ZM5.05457 24.6382C7.88162 24.5427 10.4783 24.8683 12.9215 25.4936L12.5002 29.4085C10.1533 28.8572 7.66192 28.58 4.96129 28.6767L5.05457 24.6382ZM13.4718 25.6402C16.0112 26.3429 18.3881 27.3654 20.6908 28.5684L19.9854 32.1792C18.8754 31.6283 17.7439 31.1218 16.5805 30.6746C15.4361 30.2347 14.2628 29.8529 13.0517 29.5436L13.4718 25.6402ZM21.2111 28.8442C23.4901 30.0666 25.7026 31.4564 27.9355 32.8769L26.9765 36.2244C24.8461 34.8726 22.7172 33.573 20.5081 32.4426L21.2111 28.8442ZM28.4313 33.1924L28.5349 33.2584C29.2122 33.6897 29.8919 34.1225 30.5152 34.5152C29.8839 35.4548 29.1927 36.3494 28.4566 37.1697C28.1281 36.959 27.8001 36.7489 27.4723 36.5398L28.4313 33.1924ZM6.8983 57.7899C7.91348 56.8695 8.9675 56.0231 10.0484 55.2328L10.0481 58.1396C8.99129 58.0508 7.94031 57.9342 6.8983 57.7899ZM10.9475 54.5922C11.3892 54.2852 11.8348 53.9865 12.2834 53.695C16.2045 53.7226 20.1574 53.3718 23.9885 52.6276C27.7241 51.902 31.3474 50.8032 34.7173 49.3174C34.8838 49.244 35.0458 49.1655 35.2033 49.0824C35.3856 49.3943 35.532 49.8963 35.6458 50.4659C35.8788 51.6323 35.9466 53.0185 35.9185 53.7757C35.8985 54.3154 35.343 54.5295 34.6987 54.7778L34.4813 54.8615C30.2163 56.5403 25.579 57.5951 20.8491 58.0646C17.5633 58.3907 14.2314 58.4342 10.9471 58.2083L10.9475 54.5922ZM13.7218 52.7889C15.698 51.5802 17.7161 50.4821 19.7109 49.3967C24.3476 46.874 28.8603 44.4185 32.4919 40.7887C34.2997 41.8943 36.1623 42.963 38.1282 43.9315L38.1813 43.9576C38.0057 44.5255 37.7809 45.069 37.5018 45.5766C37.1974 46.1301 36.829 46.6393 36.3902 47.0889C36.1065 47.3796 35.7931 47.646 35.4483 47.8839C35.1166 48.1127 34.7525 48.3168 34.3541 48.4924C31.0454 49.9512 27.4876 51.0302 23.8193 51.7427C20.507 52.3862 17.1074 52.7315 13.7218 52.7889ZM33.1627 40.1413C33.4431 39.851 33.7459 39.5081 34.0489 39.1424C34.5056 38.5911 34.9682 37.9815 35.3568 37.4194C37.058 38.3695 38.8229 39.2631 40.687 40.0528C41.019 40.1934 41.354 40.3306 41.6919 40.464L40.0672 43.8507C39.547 43.6166 39.0337 43.374 38.5265 43.1241C36.6732 42.2111 34.8962 41.1964 33.1627 40.1413ZM35.8526 36.664C36.1343 36.2209 36.408 35.775 36.6714 35.3167C36.882 34.9502 37.0832 34.5809 37.2728 34.2058C37.4288 34.4783 37.572 34.7507 37.6997 35.0228C37.932 35.5175 38.1152 36.0169 38.2348 36.5212C38.3182 36.873 38.3908 37.2276 38.4513 37.5824C38.4793 37.7462 38.5048 37.9096 38.5279 38.0726C37.6195 37.6243 36.729 37.1524 35.8526 36.664ZM40.5811 44.0782L42.2174 40.6675C43.4411 41.1321 44.7055 41.5467 46.0186 41.8984C45.924 42.027 45.8571 42.161 45.8153 42.2992C45.714 42.6342 45.7608 42.9674 45.9196 43.2904C45.9181 43.2995 45.9169 43.3087 45.9161 43.318C45.8516 43.9995 45.7688 44.5098 45.6743 44.8918C45.5882 45.2395 45.4975 45.463 45.4057 45.6046C45.3775 45.6481 45.323 45.6759 45.259 45.6916C45.1346 45.7221 44.9919 45.709 44.8775 45.674C43.3873 45.2175 41.9596 44.6784 40.5811 44.0782ZM46.2506 45.9397C46.3595 45.7329 46.4605 45.4628 46.5486 45.1068C46.6087 44.864 46.6643 44.5757 46.7139 44.2332C46.8477 44.3453 46.9922 44.4545 47.1448 44.5603C48.4368 45.4553 50.4068 46.1312 51.2627 46.0433C52.3011 46.0114 53.2816 45.7374 54.1606 45.2818C55.0968 44.7966 55.919 44.1062 56.5735 43.2845C56.8111 42.9862 57.049 42.6979 57.2704 42.5537C57.3944 42.4729 57.5222 42.4473 57.6561 42.5263C57.8033 42.659 57.9105 42.8066 57.9833 42.9644C58.1932 43.4193 58.1305 43.9893 57.9207 44.5622C57.6923 45.1861 57.2949 45.8015 56.8703 46.2933C56.5215 46.6972 56.1647 47.0092 55.8801 47.1631C55.3705 47.1734 54.7476 47.1102 54.0976 47.0442C52.5616 46.8882 50.8846 46.718 49.7848 47.4044C48.6378 46.2446 47.5852 46.1104 46.5255 45.9755C46.4339 45.9638 46.3422 45.9522 46.2506 45.9397ZM39.4925 38.5362C39.4522 38.1584 39.4009 37.7894 39.3397 37.4308C39.2744 37.0478 39.1983 36.6745 39.1127 36.3131C38.9806 35.756 38.7755 35.1987 38.5141 34.6421C38.2936 34.1724 38.0344 33.7073 37.7462 33.2464C37.8568 32.9925 37.9021 32.7125 37.8912 32.418C37.87 31.8428 37.6292 31.2078 37.2481 30.6212C36.8785 30.0524 36.3717 29.5191 35.8044 29.1271C35.2535 28.7464 34.6402 28.4948 34.0274 28.4621C33.8219 28.2169 33.6186 27.9727 33.4194 27.7296C34.416 26.6452 35.0943 25.4985 35.5367 24.304C39.1132 29.4628 44.5368 31.4476 49.4088 33.2304C50.0291 33.4574 50.6398 33.6809 51.3201 33.9401C52.1908 34.2717 52.9068 34.647 53.474 35.1138C53.9467 35.5029 54.322 35.961 54.6048 36.5181C54.0574 37.0695 53.657 37.8354 53.2363 38.6401C52.6649 39.7332 52.0509 40.9076 50.9793 41.5542C50.6377 41.5555 50.1093 41.4581 49.5545 41.3557C48.6055 41.1807 47.588 40.9931 46.9502 41.2093C44.8636 40.6943 42.9034 40.0153 41.036 39.2243C40.5152 39.0036 40.0009 38.7739 39.4925 38.5362ZM41.007 14.647C41.1779 14.5707 41.3496 14.4958 41.5196 14.4178L41.7549 14.9305C41.5832 15.0091 41.41 15.0848 41.2376 15.1618L41.007 14.647ZM36.6349 19.7368L36.6428 19.6816L36.6493 19.6392L36.6559 19.597L36.6628 19.555L36.67 19.5132L36.6773 19.4717L36.685 19.4304L36.6928 19.3893L36.7009 19.3484L36.7092 19.3077L36.7177 19.2673L36.7264 19.2271L36.7354 19.1871L36.7423 19.1575L37.2914 19.2864L37.2772 19.3488L37.2693 19.3855L37.2615 19.4224L37.2539 19.4595L37.2465 19.4968L37.2394 19.5343L37.2324 19.5721L37.2257 19.6101L37.2191 19.6483L37.2128 19.6867L37.2067 19.7254L37.2008 19.7643L37.1934 19.816L36.6349 19.7368ZM37.3997 17.5121L37.4359 17.4523C37.4664 17.4031 37.4972 17.3545 37.5289 17.3061C37.5479 17.2775 37.567 17.2491 37.5863 17.2207C37.6335 17.1522 37.6817 17.0847 37.7318 17.0183L38.1811 17.3594C38.0739 17.5014 37.9757 17.6487 37.884 17.8012L37.3997 17.5121ZM38.9909 15.7798C39.1477 15.6631 39.3081 15.5531 39.473 15.4483L39.7741 15.9253C39.6211 16.0225 39.4723 16.1246 39.3268 16.2329L38.9909 15.7798ZM14.8327 42.4775C14.9562 42.3832 14.9799 42.2066 14.8856 42.0831C14.7913 41.9596 14.6147 41.9359 14.4912 42.0302C14.127 42.3082 13.606 42.6238 12.9878 42.8344C12.5224 42.9929 12.0029 43.0916 11.4562 43.0687C11.301 43.0626 11.1703 43.1835 11.1642 43.3386C11.1581 43.4938 11.279 43.6245 11.4341 43.6306C12.0577 43.6567 12.6452 43.5459 13.1685 43.3676C13.853 43.1344 14.4297 42.7851 14.8327 42.4775ZM14.8396 41.0989C15.0372 40.948 15.0751 40.6654 14.9242 40.4678C14.7733 40.2702 14.4908 40.2323 14.2932 40.3832C13.9407 40.6523 13.4364 40.9578 12.838 41.1616C12.39 41.3142 11.8909 41.4092 11.3672 41.3873C11.119 41.3776 10.9098 41.5709 10.9001 41.8192C10.8903 42.0674 11.0837 42.2766 11.332 42.2863C11.9786 42.3134 12.5865 42.1989 13.1271 42.0148C13.8316 41.7748 14.425 41.4154 14.8396 41.0989ZM14.5304 54.4563C14.0727 54.4563 13.6563 54.6362 13.3531 54.9269C13.0457 55.2217 12.8555 55.6297 12.8555 56.0809C12.8555 56.5321 13.0457 56.9401 13.3531 57.2349C13.6563 57.5256 14.0727 57.7054 14.5304 57.7054C14.988 57.7054 15.4044 57.5256 15.7077 57.2349C16.0151 56.9401 16.2053 56.5321 16.2053 56.0809C16.2053 55.6297 16.0151 55.2217 15.7077 54.9269C15.4044 54.6362 14.988 54.4563 14.5304 54.4563ZM13.9771 55.5756C14.1168 55.4417 14.3122 55.3589 14.5304 55.3589C14.7485 55.3589 14.944 55.4417 15.0836 55.5756C15.219 55.7054 15.3028 55.8841 15.3028 56.0809C15.3028 56.2777 15.219 56.4564 15.0836 56.5862C14.944 56.7201 14.7485 56.8029 14.5304 56.8029C14.3122 56.8029 14.1168 56.7201 13.9771 56.5862C13.8418 56.4564 13.758 56.2777 13.758 56.0809C13.758 55.8841 13.8418 55.7054 13.9771 55.5756Z" stroke="black" stroke-width="0.7" mask="url(#path-1-outside-1_3783_4621)"/>
</g>
<defs>
<clipPath id="clip0_3783_4621">
<rect width="64" height="65" fill="white"/>
</clipPath>
</defs>
</svg>
