<svg width="62" height="73" viewBox="0 10 62 73" fill="none" xmlns="http://www.w3.org/2000/svg">
<g opacity="0.8">
<path d="M13.806 70.0388C29.0671 70.0388 44.023 70.0388 59.0963 70.0388C59.0963 51.0832 59.0963 32.2087 59.0963 13.2503C44.0062 13.2503 29.0536 13.2503 13.8094 13.2503C13.8094 13.8552 13.8094 14.408 13.8094 14.9609C13.8127 30.3939 13.8127 45.827 13.8161 61.26C13.8161 61.7897 13.9904 62.3917 13.7557 62.8317C13.4808 63.344 12.8505 63.7145 12.3745 64.1487C11.942 63.7232 11.2312 63.3382 11.134 62.8635C10.9328 61.8794 11.0535 60.8461 11.0535 59.8331C11.0569 44.2553 11.0602 28.6775 11.0669 13.0998C11.0669 10.9695 11.2681 10.7871 13.739 10.7871C28.7653 10.7784 43.7883 10.7755 58.8147 10.7784C61.832 10.7784 61.9259 10.8392 61.9292 13.4326C61.9427 32.4837 61.9292 51.5319 61.9594 70.5829C61.9628 71.9491 61.366 72.5077 59.8003 72.5077C44.2711 72.4904 28.7385 72.4904 13.2093 72.5077C11.6402 72.5106 10.9462 71.9607 11.0569 70.5916C11.1239 69.7754 10.8926 68.9158 11.1139 68.1458C11.2782 67.5699 11.8649 66.771 12.4214 66.6581C13.4339 66.4555 13.8127 67.2225 13.806 68.0503C13.8027 68.6697 13.806 69.2891 13.806 70.0388Z" fill="black"/>
<path d="M19.1861 17.815C19.5616 15.5516 19.5616 15.5516 22.2504 15.5487C23.0852 15.5487 23.9233 15.5487 24.7581 15.5458C27.353 15.5371 27.3731 15.5516 27.6816 17.6819C30.2933 18.2521 30.2899 18.2521 30.3033 20.7152C30.3067 21.3404 30.3368 21.9656 30.3368 22.5908C30.3469 24.7674 30.2597 24.8543 27.8459 25.1495C27.0446 27.4274 27.0446 27.4274 24.1144 27.4129C23.4472 27.41 22.7767 27.4071 22.1096 27.41C19.5951 27.4129 19.518 27.3579 19.2129 25.2363C16.5945 24.7095 16.5945 24.7095 16.5979 22.3303C16.5979 21.6559 16.6079 20.9844 16.6046 20.31C16.5811 18.09 16.6314 18.0379 19.1861 17.815ZM24.6911 24.9729C24.9358 22.9237 24.9358 22.9237 27.4402 22.4432C27.4402 21.7572 27.4402 21.0655 27.4402 20.255C25.1772 20.6371 24.6676 19.4735 24.6911 17.9047C24.1647 17.9047 23.7792 17.8903 23.3936 17.9076C22.9712 17.9279 22.5521 17.9742 22.1565 18.0089C21.9654 20.0206 21.9654 20.0206 19.4375 20.4403C19.4375 21.1291 19.4375 21.8267 19.4375 22.669C21.7072 22.2522 22.2068 23.4302 22.19 24.9671C23.0952 24.9729 23.8563 24.9729 24.6911 24.9729Z" fill="black"/>
<path d="M35.1295 37.4656C35.1496 39.4193 33.2654 41.0547 30.9991 41.0518C28.7428 41.0489 26.8452 39.3933 26.8754 37.454C26.9022 35.5727 28.7461 33.9749 30.932 33.9315C33.1782 33.8881 35.1093 35.5119 35.1295 37.4656ZM32.957 37.5061C32.0216 36.962 31.4986 36.4265 30.9789 36.4265C30.5431 36.4265 29.7117 37.1212 29.7687 37.399C29.8659 37.865 30.4794 38.5134 30.9655 38.5771C31.4315 38.6378 32.0082 38.0503 32.957 37.5061Z" fill="black"/>
<path d="M41.3688 41.0481C39.1058 41.077 37.2015 39.4649 37.1914 37.5082C37.1814 35.5574 39.0823 33.9134 41.3319 33.9278C43.5178 33.9423 45.3718 35.514 45.4321 37.404C45.4992 39.3433 43.6284 41.0192 41.3688 41.0481ZM41.2179 35.8092C40.6145 36.6602 39.9473 37.1898 40.0445 37.5748C40.1518 38.0061 40.9162 38.5097 41.4694 38.5821C41.7812 38.6255 42.5523 37.8671 42.5456 37.4764C42.5422 37.0364 41.8918 36.6052 41.2179 35.8092Z" fill="black"/>
<path d="M20.6851 61.2492C22.928 61.2318 24.7451 62.734 24.7988 64.653C24.8558 66.6473 23.0755 68.2855 20.8058 68.3231C18.5026 68.3637 16.6385 66.8151 16.5983 64.8325C16.5581 62.8527 18.3685 61.2665 20.6851 61.2492ZM20.6013 63.064C20.0113 63.9468 19.4246 64.4359 19.4681 64.8788C19.505 65.2608 20.3599 65.9381 20.6751 65.8687C21.2081 65.7529 21.9088 65.1827 21.9658 64.7485C22.0161 64.352 21.3054 63.8831 20.6013 63.064Z" fill="black"/>
<path d="M24.8033 51.1356C24.8201 53.043 23.0331 54.6407 20.8372 54.6812C18.5339 54.7246 16.6565 53.1877 16.6028 51.2108C16.5459 49.2455 18.3898 47.5957 20.6595 47.5783C22.9326 47.5581 24.7865 49.15 24.8033 51.1356ZM22.6845 51.1558C21.7323 50.6001 21.206 50.0617 20.6863 50.0646C20.2505 50.0646 19.4157 50.7535 19.4693 51.0371C19.5565 51.5003 20.1767 52.1544 20.6595 52.2181C21.1289 52.2817 21.7122 51.7 22.6845 51.1558Z" fill="black"/>
<path d="M51.6332 61.2432C53.9331 61.2403 55.7267 62.8235 55.7066 64.8294C55.6831 66.7744 53.9398 68.2882 51.6935 68.3113C49.3869 68.3374 47.5229 66.7715 47.5195 64.8033C47.5128 62.8206 49.3333 61.2461 51.6332 61.2432ZM53.6045 64.8149C52.6423 64.2418 52.1193 63.6918 51.603 63.6947C51.1538 63.6976 50.3022 64.3836 50.3559 64.6644C50.443 65.1333 51.0565 65.7816 51.5561 65.8627C52.0154 65.9408 52.6121 65.359 53.6045 64.8149Z" fill="black"/>
<path d="M55.7071 37.4307C55.7407 39.4221 53.9303 41.0343 51.6471 41.0458C49.364 41.0574 47.5201 39.4626 47.5234 37.4799C47.5268 35.558 49.2869 33.9892 51.5063 33.9284C53.7693 33.8677 55.6736 35.4538 55.7071 37.4307ZM51.6974 35.804C51.0135 36.6087 50.3564 37.0457 50.353 37.4857C50.353 37.8793 51.1241 38.6203 51.4661 38.5856C51.9992 38.5306 52.7535 37.998 52.8608 37.5667C52.958 37.1818 52.3009 36.6579 51.6974 35.804Z" fill="black"/>
<path d="M55.7032 51.092C55.7267 53.0833 53.9062 54.6839 51.6231 54.6753C49.3165 54.6666 47.5229 53.1036 47.5195 51.1035C47.5162 49.199 49.3031 47.636 51.5292 47.5955C53.8526 47.555 55.6798 49.0861 55.7032 51.092ZM53.6146 51.0833C52.6088 50.5565 52.0523 50.0355 51.5393 50.0645C51.0901 50.0905 50.2854 50.8141 50.3558 51.0862C50.4799 51.5522 51.1269 52.1745 51.6298 52.2295C52.0891 52.2816 52.6524 51.6738 53.6146 51.0833Z" fill="black"/>
<path d="M31.0227 54.6865C28.7631 54.6981 26.8756 53.0686 26.8789 51.1119C26.8789 49.2363 28.7228 47.627 30.9121 47.5952C33.1986 47.5634 35.1095 49.1379 35.1431 51.0888C35.1699 53.0309 33.2891 54.675 31.0227 54.6865ZM32.9572 51.054C32.0017 50.5562 31.4452 50.0439 30.9188 50.0641C30.493 50.0815 29.7052 50.8196 29.7823 51.0975C29.9063 51.5606 30.5634 52.1915 31.0495 52.2263C31.5189 52.2581 32.0587 51.6387 32.9572 51.054Z" fill="black"/>
<path d="M41.3693 68.3135C39.0628 68.3425 37.2054 66.7766 37.1954 64.7997C37.1853 62.8894 38.9689 61.2945 41.1682 61.2482C43.4647 61.199 45.3623 62.7273 45.4428 64.6926C45.5199 66.6261 43.6558 68.2846 41.3693 68.3135ZM41.3693 63.0486C40.6821 63.8821 39.978 64.3655 40.0384 64.7621C40.1054 65.1991 40.8195 65.7577 41.3626 65.8648C41.6778 65.9285 42.5193 65.2338 42.5495 64.846C42.583 64.4031 41.9795 63.9227 41.3693 63.0486Z" fill="black"/>
<path d="M27.9662 45.1849C26.6319 45.1849 25.2976 45.1704 23.9666 45.1907C22.9675 45.2051 21.9986 44.9678 22.1931 43.9953C22.2836 43.5351 23.2692 42.907 23.8794 42.878C26.595 42.7565 29.3274 42.7536 32.0396 42.8809C32.6331 42.9099 33.1829 43.6422 33.7528 44.0503C33.1561 44.4294 32.6062 45.0546 31.9558 45.1415C30.6517 45.3151 29.2972 45.1936 27.9629 45.1936C27.9662 45.1907 27.9662 45.1878 27.9662 45.1849Z" fill="black"/>
<path d="M27.8848 58.8259C26.4901 58.8259 25.0753 58.9388 23.7041 58.7738C23.1208 58.7044 22.6346 58.0502 22.1016 57.6595C22.6279 57.2601 23.1375 56.5422 23.684 56.5191C26.527 56.4033 29.3801 56.4033 32.2231 56.522C32.7528 56.5451 33.2423 57.3035 33.7485 57.7232C33.2456 58.0908 32.7796 58.716 32.2331 58.7738C30.8016 58.9244 29.3365 58.8231 27.8848 58.8231V58.8259Z" fill="black"/>
<path d="M42.2987 45.1817C40.9074 45.1817 39.496 45.2917 38.1315 45.1267C37.5716 45.0572 37.1123 44.3886 36.6094 43.9921C37.129 43.6013 37.6319 42.8922 38.1717 42.8719C40.951 42.7591 43.7437 42.762 46.523 42.8777C47.0896 42.9009 47.9881 43.5203 48.0887 43.9747C48.2865 44.8373 47.4483 45.1875 46.4794 45.1846C45.0848 45.1788 43.6934 45.1817 42.2987 45.1817Z" fill="black"/>
<path d="M42.4522 58.846C41.1145 58.846 39.7768 58.8402 38.4391 58.8489C37.4434 58.8546 36.5818 58.652 36.6019 57.6274C36.6187 56.7099 37.3998 56.4552 38.3419 56.4552C41.0173 56.461 43.6994 56.3886 46.368 56.5131C46.9883 56.542 47.9873 57.1672 48.0812 57.6274C48.2757 58.5941 47.3034 58.846 46.301 58.8344C45.0203 58.8199 43.7362 58.8315 42.4555 58.8315C42.4522 58.8373 42.4522 58.8402 42.4522 58.846Z" fill="black"/>
<path d="M20.4011 37.3813C21.2024 36.8487 21.8394 36.238 22.6306 35.9601C23.2072 35.7575 23.9917 35.9977 24.6824 36.0382C24.5784 36.5969 24.6958 37.3378 24.3236 37.6765C23.4084 38.5072 22.3322 39.2424 21.1856 39.8241C20.7129 40.0644 19.8177 39.966 19.2746 39.7373C18.6577 39.4768 18.061 38.9645 17.7492 38.4348C17.4307 37.8907 17.1223 36.9934 17.424 36.5969C18.071 35.743 18.9628 36.1772 19.6602 36.7937C19.8546 36.9645 20.0692 37.1179 20.4011 37.3813Z" fill="black"/>
<path d="M30.7384 64.6673C31.5631 64.1116 32.1967 63.5124 32.9846 63.2114C33.5143 63.0088 34.2586 63.2259 34.909 63.2577C34.8218 63.8511 34.9761 64.6326 34.5939 64.9973C33.7457 65.8077 32.6996 66.5169 31.5933 67.0494C31.0669 67.3041 30.1181 67.2318 29.5381 66.9915C28.8743 66.7137 28.244 66.158 27.9054 65.5877C27.6104 65.0928 27.7445 64.4097 27.6875 63.8106C28.3781 63.8395 29.0889 63.8048 29.7561 63.9292C30.0846 63.99 30.3361 64.3489 30.7384 64.6673Z" fill="black"/>
<path d="M41.0224 50.4412C41.8304 49.8942 42.4607 49.2834 43.2485 49.0027C43.8185 48.8001 44.5996 49.0374 45.2869 49.0779C45.1964 49.6337 45.3372 50.3804 44.9718 50.7075C44.0129 51.5613 42.8898 52.3052 41.7164 52.9304C41.2906 53.1562 40.4189 53.0751 39.9529 52.8378C39.2589 52.4818 38.5884 51.9376 38.2028 51.3327C37.9011 50.858 38.0419 50.172 37.9883 49.5816C38.6756 49.6076 39.3796 49.5642 40.0401 49.6887C40.3653 49.7465 40.6134 50.1112 41.0224 50.4412Z" fill="black"/>
<path d="M26.8561 32.1197C25.743 32.1197 24.6065 32.2413 23.5337 32.0676C22.9973 31.9808 22.5782 31.3527 22.1055 30.9706C22.5715 30.577 23.0107 29.8707 23.5035 29.8447C25.7196 29.7202 27.9524 29.7115 30.1651 29.8447C30.6948 29.8765 31.1709 30.6146 31.6704 31.0285C31.1776 31.3961 30.7317 31.9981 30.1819 32.0821C29.1057 32.2499 27.9692 32.1313 26.8561 32.1313C26.8561 32.1284 26.8561 32.1226 26.8561 32.1197Z" fill="black"/>
<path d="M39.2886 29.786C40.4016 29.786 41.5415 29.6587 42.6143 29.8381C43.1508 29.9278 43.5631 30.5733 44.0325 30.9698C43.5631 31.3548 43.1172 32.0495 42.6244 32.0755C40.3513 32.1971 38.0615 32.1913 35.7885 32.0813C35.3291 32.0581 34.5044 31.3432 34.5614 31.0509C34.6553 30.5849 35.2856 29.9307 35.7952 29.8497C36.925 29.6673 38.1185 29.7947 39.2886 29.7947C39.2886 29.7918 39.2886 29.7889 39.2886 29.786Z" fill="black"/>
<path d="M51.6162 32.1365C50.5601 32.1365 49.4739 32.2667 48.4647 32.0873C47.868 31.9802 47.3885 31.381 46.8555 31.0048C47.3584 30.5996 47.8344 29.8759 48.3708 29.8441C50.5232 29.711 52.7024 29.7081 54.8548 29.8441C55.3912 29.8759 55.8673 30.5996 56.3735 31.0019C55.8438 31.3839 55.3677 31.9889 54.771 32.096C53.7618 32.2783 52.6722 32.1452 51.6195 32.1452C51.6162 32.1423 51.6162 32.1394 51.6162 32.1365Z" fill="black"/>
<path d="M37.5426 17.9014C36.5402 17.8985 35.5042 18.0317 34.5487 17.8493C34.0023 17.7451 33.5899 17.1315 33.1172 16.7466C33.5731 16.35 34.0023 15.6409 34.4884 15.609C36.4832 15.4788 38.5015 15.4788 40.4929 15.6119C40.9757 15.6438 41.3948 16.3674 41.844 16.7726C41.3579 17.1489 40.9287 17.7393 40.3689 17.8551C39.4704 18.0375 38.4881 17.9043 37.5426 17.9014Z" fill="black"/>
<path d="M45.4334 22.6315C44.7662 22.6315 44.0286 22.7849 43.4486 22.5881C42.8887 22.3999 42.2216 21.8992 42.1143 21.4448C42.0405 21.138 42.815 20.3854 43.2843 20.3333C44.6556 20.1828 46.0737 20.1886 47.4449 20.342C47.9076 20.3941 48.6653 21.1496 48.5882 21.4535C48.4775 21.9021 47.8104 22.3797 47.2538 22.5823C46.7342 22.7733 46.0469 22.6228 45.4367 22.6228C45.4334 22.6257 45.4334 22.6286 45.4334 22.6315Z" fill="black"/>
<path d="M36.0316 22.6194C35.4784 22.6194 34.8481 22.7612 34.3921 22.5818C33.8792 22.3763 33.2724 21.9189 33.1886 21.4964C33.1215 21.1693 33.7484 20.4428 34.1441 20.3965C35.4482 20.2431 36.8027 20.217 38.1001 20.3704C38.5259 20.4196 39.1528 21.1751 39.1193 21.5745C39.0891 21.9508 38.3683 22.4139 37.842 22.5876C37.3089 22.7554 36.6417 22.6194 36.0316 22.6194Z" fill="black"/>
<path d="M18.0129 29.2539C18.6364 30.1078 19.3103 30.623 19.2299 31.0253C19.146 31.445 18.3716 31.966 17.8285 32.0383C17.5033 32.0818 16.7154 31.3466 16.7188 30.9674C16.7255 30.5159 17.3558 30.0701 18.0129 29.2539Z" fill="black"/>
</g>
</svg>
