<svg width="84" height="83" viewBox="0 0 84 83" fill="none" xmlns="http://www.w3.org/2000/svg">
<path d="M55.1264 23.8419V18.7026C55.1254 18.0252 54.9889 17.3548 54.7249 16.7308C54.461 16.1067 54.0748 15.5415 53.5892 15.0682C52.5966 14.1009 51.2637 13.5603 49.8764 13.5625H34.1264C32.7391 13.5603 31.4062 14.1009 30.4136 15.0682C29.9279 15.5415 29.5418 16.1067 29.2778 16.7308C29.0139 17.3548 28.8774 18.0252 28.8764 18.7026V23.8419M70.8789 23.8419H13.1289C11.6791 23.8419 10.5039 24.9922 10.5039 26.4116V67.5268C10.5039 68.9461 11.6799 70.0972 13.1289 70.0972H70.8789C72.3287 70.0972 73.5039 68.9461 73.5039 67.5268V26.4124C73.5039 24.993 72.3279 23.8419 70.8789 23.8419Z" stroke="#FBAD17" stroke-width="6" stroke-linecap="round" stroke-linejoin="round"/>
<path d="M73.5039 41.287C63.9304 46.7088 53.0617 49.556 42.0014 49.5392C30.9428 49.556 20.0757 46.7096 10.5039 41.2895M38.0643 39.2598H45.9385" stroke="#FBAD17" stroke-width="6" stroke-linecap="round" stroke-linejoin="round"/>
</svg>
