<svg width="108" height="108" viewBox="-20 -20 108 108" fill="none" xmlns="http://www.w3.org/2000/svg">
<g clip-path="url(#clip0_3758_4683)">
<path d="M1.18923 49.7557C1.86658 49.7557 2.46158 49.7557 3.04595 49.7557C4.57064 58.4151 8.88704 63.3929 15.4825 64.6015C21.5414 65.7118 29.2313 63.1405 32.7986 54.9407C33.1227 55.1585 33.4441 55.3444 33.7336 55.5702C38.3369 59.1482 44.5233 59.0844 49.0442 55.3683C49.9633 54.6113 50.8558 53.7985 51.6367 52.9033C54.2186 49.9469 57.5814 48.6852 61.3586 48.4037C62.4184 48.324 62.9072 47.9282 63.2897 47.0145C65.1517 42.5493 65.1544 37.9354 64.23 33.3188C62.1953 23.1773 57.5097 14.2948 51.063 6.2809C49.6764 4.55699 48.0216 3.99918 45.8142 4.30996C42.4036 4.78809 38.9558 4.99262 35.5266 5.34856C35.1361 5.3884 34.6075 5.54777 34.4162 5.83199C32.9845 7.9809 31.8211 10.2653 31.5342 12.8764C31.4944 13.2509 31.76 13.8804 32.0655 14.0345C35.7444 15.8965 39.5641 17.1264 43.7928 16.5685C44.8394 16.4304 45.4078 16.0267 45.6176 15.0306C45.7 14.6428 45.8301 14.2656 45.9205 13.8778C46.3428 12.0582 47.833 11.2109 49.5383 12.029C50.4122 12.4487 51.31 13.142 51.8173 13.9495C54.702 18.5474 55.7353 23.5651 54.7206 28.9254C54.5347 29.9002 54.0937 30.8778 53.5625 31.7224C51.9183 34.3335 50.4255 36.9712 50.7708 40.427C43.8911 34.8143 37.4231 34.7346 31.1331 41.1654C28.7638 37.9141 25.6506 35.5182 21.4777 34.716C17.3844 33.9271 13.5674 34.6284 9.98939 36.8649C9.77423 36.6259 9.56173 36.4107 9.37313 36.1716C9.18454 35.9352 9.02251 35.6776 8.84985 35.4332C13.6577 31.5763 23.9347 30.3146 31.2234 37.962C36.6316 33.5154 42.5098 33.4437 48.76 36.177C50.0722 33.4702 51.9236 30.8459 52.6222 27.9453C53.7112 23.419 52.585 19.0017 50.0562 15.0279C49.8464 14.6985 49.5701 14.3771 49.2514 14.1593C48.5873 13.7051 48.003 13.6467 47.8276 14.6693C47.7745 14.9721 47.6709 15.267 47.5886 15.5645C47.0812 17.4079 46.0161 18.4199 43.9787 18.6617C38.9452 19.262 34.4428 17.8568 30.1848 15.3892C29.7917 15.1607 29.4464 14.4754 29.4464 14.0026C29.4464 10.1112 31.2075 6.8573 33.3458 3.77074C33.5264 3.51043 34.0178 3.37762 34.3817 3.34309C38.2067 2.95793 42.0397 2.65778 45.8594 2.2195C48.2155 1.94856 50.2262 2.35231 51.8253 4.25153C60.5298 14.5896 66.5197 26.0885 66.8942 39.9223C66.9872 43.3223 66.1637 46.6054 64.3415 49.5379C64.0759 49.9655 63.4278 50.3773 62.9364 50.4065C58.8484 50.6509 55.3342 51.9205 52.5026 55.108C48.5953 59.5094 43.6441 61.3104 37.8003 59.9796C36.3234 59.6422 34.9475 58.8773 33.4095 58.2663C31.0109 62.2772 27.4834 65.069 22.8297 66.3174C19.2199 67.2843 15.6552 67.0532 12.1542 65.7197C5.69158 63.2627 0.997983 56.5158 1.18923 49.7557Z" fill="black"/>
<path d="M12.7853 3.46539C9.81563 6.1057 6.94953 8.65039 3.94266 11.3226C3.53359 10.7701 3.17766 10.284 2.75 9.70492C5.97735 6.84414 9.31094 3.89039 12.7773 0.814453C16.1614 3.81336 19.5189 6.78836 22.9667 9.8457C22.4753 10.3424 22.0583 10.7621 21.5563 11.2694C18.6317 8.66632 15.7683 6.11898 12.7853 3.46539Z" fill="black"/>
<path d="M6.82266 49.7451C7.47875 49.7451 8.03922 49.7451 8.58375 49.7451C10.042 56.1679 12.3742 58.5028 18.1914 59.3129C18.1914 59.8893 18.1914 60.4843 18.1914 61.0846C13.102 61.6982 6.58625 56.5637 6.82266 49.7451Z" fill="black"/>
<path d="M17.1328 9.63965C17.7995 9.63965 18.368 9.63965 19.0108 9.63965C19.0108 14.1686 19.0108 18.655 19.0108 23.245C18.4317 23.245 17.8367 23.245 17.1328 23.245C17.1328 18.7798 17.1328 14.2642 17.1328 9.63965Z" fill="black"/>
<path d="M8.41515 21.1407C7.75375 21.1407 7.15875 21.1407 6.5 21.1407C6.5 17.2972 6.5 13.52 6.5 9.66309C7.1375 9.66309 7.7325 9.66309 8.41515 9.66309C8.41515 13.4456 8.41515 17.2228 8.41515 21.1407Z" fill="black"/>
<path d="M11.8203 6.47461C12.4578 6.47461 13.0528 6.47461 13.7195 6.47461C13.7195 9.95164 13.7195 13.3729 13.7195 16.8845C13.1059 16.8845 12.5109 16.8845 11.8203 16.8845C11.8203 13.4526 11.8203 9.9968 11.8203 6.47461Z" fill="black"/>
<path d="M11.8203 19.1982C12.487 19.1982 13.0502 19.1982 13.7089 19.1982C13.7089 19.8437 13.7089 20.4679 13.7089 21.1559C13.082 21.1559 12.487 21.1559 11.8203 21.1559C11.8203 20.5184 11.8203 19.9261 11.8203 19.1982Z" fill="black"/>
<path d="M8.41766 25.4244C7.71906 25.4244 7.15859 25.4244 6.50781 25.4244C6.50781 24.7922 6.50781 24.1998 6.50781 23.5039C7.10281 23.5039 7.72703 23.5039 8.41766 23.5039C8.41766 24.1281 8.41766 24.7205 8.41766 25.4244Z" fill="black"/>
<path d="M11.8203 23.4746C12.4419 23.4746 13.0342 23.4746 13.7036 23.4746C13.7036 24.1068 13.7036 24.6991 13.7036 25.3818C13.1086 25.3818 12.5136 25.3818 11.8203 25.3818C11.8203 24.7895 11.8203 24.1652 11.8203 23.4746Z" fill="black"/>
<path d="M17.1328 27.5121C17.1328 26.8454 17.1328 26.253 17.1328 25.5996C17.7916 25.5996 18.3866 25.5996 19.0533 25.5996C19.0533 26.2398 19.0533 26.8321 19.0533 27.5121C18.4477 27.5121 17.8553 27.5121 17.1328 27.5121Z" fill="black"/>
<path d="M8.39641 29.6823C7.72969 29.6823 7.16656 29.6823 6.50781 29.6823C6.50781 29.0368 6.50781 28.4126 6.50781 27.7246C7.13469 27.7246 7.72969 27.7246 8.39641 27.7246C8.39641 28.3621 8.39641 28.9545 8.39641 29.6823Z" fill="black"/>
</g>
<defs>
<clipPath id="clip0_3758_4683">
<rect width="68" height="68" fill="white"/>
</clipPath>
</defs>
</svg>
