<svg xmlns="http://www.w3.org/2000/svg" xmlns:xlink="http://www.w3.org/1999/xlink" version="1.1" x="0px" y="0px" viewBox="0 0 64 80" style="enable-background:new 0 0 64 64;" xml:space="preserve"><g><path d="M28,22c0,2.206,1.794,4,4,4s4-1.794,4-4s-1.794-4-4-4c-0.052,0-0.1,0.013-0.151,0.015l-0.99-3.301   c-0.158-0.528-0.716-0.827-1.245-0.67c-0.529,0.159-0.829,0.716-0.671,1.246l0.991,3.303C28.78,19.295,28,20.553,28,22z M34,22   c0,1.103-0.897,2-2,2s-2-0.897-2-2s0.897-2,2-2S34,20.897,34,22z"/><path d="M59.332,43.943C59.732,43.802,60,43.424,60,43V33c0-0.324-0.157-0.628-0.422-0.816c-0.267-0.188-0.604-0.236-0.91-0.127   L58,32.292V22c0-2.757-2.243-5-5-5h-4.051C48.427,8.092,41.036,1,32,1S15.573,8.092,15.051,17H11c-2.757,0-5,2.243-5,5v24.089   l-0.908-0.084c-0.276-0.027-0.558,0.067-0.766,0.257S4,46.719,4,47v10c0,0.517,0.394,0.948,0.908,0.996l1.102,0.102   C6.063,60.808,8.277,63,11,63h42c0.422,0,0.842-0.053,1.249-0.157c0.165-0.042,0.3-0.132,0.417-0.24l4.242,0.393   C58.938,62.999,58.97,63,59,63c0.248,0,0.488-0.092,0.674-0.261C59.882,62.549,60,62.281,60,62V52c0-0.517-0.394-0.948-0.908-0.996   L58,50.903v-6.491L59.332,43.943z M58,42.292l-19.227,6.765c-0.037,0.013-0.062,0.041-0.096,0.057l-11.376-1.053   C27.205,48.03,27.107,48,27,48c-0.04,0-0.073,0.018-0.112,0.023l-5.994-0.555L31,43.912V46c0,0.552,0.447,1,1,1s1-0.448,1-1v-2.792   l3-1.056V43c0,0.552,0.447,1,1,1s1-0.448,1-1v-1.551l3-1.056V43c0,0.552,0.447,1,1,1s1-0.448,1-1v-3.31l3-1.056V40   c0,0.552,0.447,1,1,1s1-0.448,1-1v-2c0-0.023-0.012-0.042-0.013-0.065L51,36.875V40c0,0.552,0.447,1,1,1s1-0.448,1-1v-3.829   l5-1.759V42.292z M43.395,49.551L52,46.523v3.825L43.395,49.551z M32,3c7.934,0,14.431,6.195,14.949,14h-2   c-0.243-3.171-1.618-6.029-3.735-8.159c-0.009-0.01-0.012-0.024-0.022-0.034c-0.01-0.01-0.023-0.013-0.034-0.022   C38.807,6.448,35.57,5,32,5s-6.807,1.448-9.159,3.785c-0.01,0.009-0.024,0.012-0.034,0.022c-0.01,0.01-0.013,0.023-0.022,0.034   c-2.117,2.129-3.491,4.988-3.735,8.159h-2C17.569,9.195,24.066,3,32,3z M8,22c0-1.654,1.346-3,3-3h12c0.553,0,1-0.448,1-1   s-0.447-1-1-1h-1.949c0.207-2.283,1.111-4.366,2.501-6.034l1.377,1.377c0.195,0.195,0.451,0.293,0.707,0.293   s0.512-0.098,0.707-0.293c0.391-0.39,0.391-1.023,0-1.414l-1.377-1.377C26.634,8.161,28.717,7.258,31,7.051V9c0,0.552,0.447,1,1,1   s1-0.448,1-1V7.051c2.283,0.207,4.366,1.111,6.034,2.502l-1.377,1.377c-0.391,0.391-0.391,1.024,0,1.414   c0.195,0.195,0.451,0.293,0.707,0.293s0.512-0.098,0.707-0.293l1.377-1.377c1.391,1.667,2.294,3.751,2.501,6.034H41   c-0.553,0-1,0.448-1,1s0.447,1,1,1h12c1.654,0,3,1.346,3,3v10.995l-2,0.704V32c0-0.552-0.447-1-1-1s-1,0.448-1,1v2   c0,0.133,0.029,0.26,0.076,0.376L17.668,46.482c-0.302,0.106-0.506,0.349-0.601,0.631L12,46.644V23h7.5c1.379,0,2.5,1.122,2.5,2.5   c0,2.481,2.019,4.5,4.5,4.5h11c2.481,0,4.5-2.019,4.5-4.5c0-1.378,1.121-2.5,2.5-2.5H52v5c0,0.552,0.447,1,1,1s1-0.448,1-1v-6   c0-0.552-0.447-1-1-1h-8.5c-2.481,0-4.5,2.019-4.5,4.5c0,1.378-1.121,2.5-2.5,2.5h-11c-1.379,0-2.5-1.122-2.5-2.5   c0-2.481-2.019-4.5-4.5-4.5H11c-0.553,0-1,0.448-1,1v24.459l-2-0.185V22z M11,61c-1.557,0-2.825-1.196-2.971-2.715L37.356,61H11z    M58,60.903L6,56.088v-7.992l5,0.463V52c0,0.552,0.447,1,1,1s1-0.448,1-1v-3.255l3,0.278V51c0,0.552,0.447,1,1,1s1-0.448,1-1   v-1.792l3,0.278V53c0,0.552,0.447,1,1,1s1-0.448,1-1v-3.329l3,0.278V52c0,0.552,0.447,1,1,1s1-0.448,1-1v-1.866l3,0.278V54   c0,0.552,0.447,1,1,1s1-0.448,1-1v-3.403l3,0.278V53c0,0.552,0.447,1,1,1s1-0.448,1-1v-1.94l3,0.278V55c0,0.552,0.447,1,1,1   s1-0.448,1-1v-3.477l3,0.278V54c0,0.552,0.447,1,1,1s1-0.448,1-1v-2.014l3,0.278V56c0,0.552,0.447,1,1,1s1-0.448,1-1v-3.551   l5,0.463V60.903z M56,50.718l-2-0.185V46c0-0.06-0.024-0.112-0.034-0.169L56,45.116V50.718z"/></g><text x="0" y="79" fill="#000000" font-size="5px" font-weight="bold" font-family="'Helvetica Neue', Helvetica, Arial-Unicode, Arial, Sans-serif">Created by Eucalyp</text><text x="0" y="84" fill="#000000" font-size="5px" font-weight="bold" font-family="'Helvetica Neue', Helvetica, Arial-Unicode, Arial, Sans-serif">from the Noun Project</text></svg>