<svg width="88" height="88" viewBox="0 -10 88 88" fill="none" xmlns="http://www.w3.org/2000/svg">
<path d="M66.4737 56.2001V7.08422H57.1462V7.08395H53.3062C53.0067 5.85969 51.9033 4.94727 50.5881 4.94727H44.237C42.9219 4.94727 41.8183 5.85969 41.5188 7.08395H37.7053V7.08422H28.379V44.9238H29.7072V8.41234H37.7053V13.5137H57.1462V8.41234H65.1455V55.2612H58.6819V61.7246H29.707V51.7637H28.3789V63.0527H59.6208L66.4737 56.2001ZM44.2369 6.27539H50.5879C51.1612 6.27539 51.6589 6.60463 51.9023 7.08395H42.9224C43.1657 6.60463 43.6635 6.27539 44.2369 6.27539ZM55.818 12.1855H39.0333V8.41234H41.4358H53.389H55.818V12.1855ZM64.2061 56.5893L60.0099 60.7854V56.5893H64.2061Z" fill="black"/>
<path d="M52.7266 9.63477H42.1016V10.9629H52.7266V9.63477Z" fill="black"/>
<path d="M55.7028 16.4453V19.5857H52.5625V23.4372H55.7028V26.5776H59.5544V23.4372H62.6948V19.5857H59.5544V16.4453H55.7028ZM61.3666 20.9138V22.1091H58.2263V25.2495H57.031V22.1091H53.8906V20.9138H57.031V17.7734H58.2263V20.9138H61.3666Z" fill="black"/>
<path d="M40.4135 58.4932H32.3203V59.8213H40.4135V58.4932Z" fill="black"/>
<path d="M62.0304 30.5322H48.7148V31.8604H62.0304V30.5322Z" fill="black"/>
<path d="M47.1521 30.5322H45.2656V31.8604H47.1521V30.5322Z" fill="black"/>
<path d="M62.0304 32.8604H40.9453V34.1885H62.0304V32.8604Z" fill="black"/>
<path d="M62.0304 45.585H48.7148V46.9131H62.0304V45.585Z" fill="black"/>
<path d="M47.1521 45.585H45.2656V46.9131H47.1521V45.585Z" fill="black"/>
<path d="M62.0304 47.9131H40.9453V49.2412H62.0304V47.9131Z" fill="black"/>
<path d="M62.0304 38.0586H48.7148V39.3867H62.0304V38.0586Z" fill="black"/>
<path d="M47.1521 38.0586H45.2656V39.3867H47.1521V38.0586Z" fill="black"/>
<path d="M62.0304 40.3867H40.9453V41.7148H62.0304V40.3867Z" fill="black"/>
<path d="M12.2182 47.0105V55.6093C12.2182 59.3389 15.2525 62.3734 18.9822 62.3734C22.7118 62.3734 25.7462 59.3389 25.7462 55.6093V54.3136C25.7462 52.274 27.4056 50.6145 29.4452 50.6145C33.7995 50.6145 37.3421 47.072 37.3421 42.7176V30.532H35.8957V27.9992C38.0728 27.677 39.7489 25.7963 39.7489 23.5311C39.7489 21.0403 37.7224 19.0139 35.2317 19.0139C32.7409 19.0139 30.7144 21.0403 30.7144 23.5311C30.7144 25.7963 32.3905 27.677 34.5676 27.9992V30.532H33.1441V42.7176C33.1441 44.7572 31.4848 46.4167 29.445 46.4167C25.0908 46.4167 21.5483 49.9593 21.5483 54.3136V55.6093C21.5483 57.0243 20.397 58.1754 18.9822 58.1754C17.5673 58.1754 16.4161 57.0243 16.4161 55.6093V47.0105C22.5538 45.997 27.1107 40.6725 27.1107 34.39V22.8673H25.6437V14.9773H23.2419C23.1072 13.576 22.5341 12.7314 21.6785 12.7314C20.074 12.7314 18.7686 14.0369 18.7686 15.6414C18.7686 17.2459 20.074 18.5514 21.6785 18.5514C22.0156 18.5514 22.6353 18.4037 22.9994 17.4149C23.1153 17.0996 23.1962 16.7183 23.2387 16.3054H24.3154V22.8673H22.9128V34.39C22.9128 39.1297 19.0568 42.9856 14.317 42.9856C9.57719 42.9856 5.72124 39.1297 5.72124 34.39V29.0528H4.39312V34.39C4.39312 39.8618 8.845 44.3137 14.317 44.3137C19.789 44.3137 24.2409 39.8618 24.2409 34.39V24.1954H25.7824V34.39C25.7824 40.1979 21.4366 45.0923 15.6738 45.7748L15.0879 45.844V55.6093C15.0879 57.7566 16.8347 59.5035 18.982 59.5035C21.1294 59.5035 22.8762 57.7566 22.8762 55.6093V54.3136C22.8762 50.6916 25.823 47.7448 29.4449 47.7448C32.2168 47.7448 34.4721 45.4898 34.4721 42.7176V31.8602H36.0137V42.7176C36.0137 46.3396 33.0668 49.2864 29.4449 49.2864C26.673 49.2864 24.4178 51.5415 24.4178 54.3136V55.6093C24.4178 58.6066 21.9794 61.0453 18.9819 61.0453C15.9845 61.0453 13.546 58.6067 13.546 55.6093V45.844L12.9601 45.7748C7.19719 45.0923 2.85143 40.198 2.85143 34.39V24.1954H4.39299V27.3844H5.72111V22.8673H4.26602V16.3054H5.33954C5.47421 17.7067 6.0473 18.5514 6.90288 18.5514C8.50739 18.5514 9.8128 17.246 9.8128 15.6414C9.8128 14.0367 8.50739 12.7314 6.90288 12.7314C6.5658 12.7314 5.9461 12.8791 5.58206 13.8679C5.46598 14.1832 5.38523 14.5644 5.34273 14.9773H2.93789V22.8673H1.52344V34.39C1.52344 40.6725 6.0805 45.997 12.2182 47.0105ZM32.0424 23.5312C32.0424 21.7728 33.473 20.3421 35.2315 20.3421C36.9901 20.3421 38.4206 21.7727 38.4206 23.5312C38.4206 25.2898 36.9901 26.7203 35.2315 26.7203C33.473 26.7203 32.0424 25.2898 32.0424 23.5312ZM21.6192 17.2221C20.7745 17.1908 20.0967 16.4936 20.0967 15.6414C20.0967 14.7891 20.7745 14.092 21.6192 14.0606C21.7452 14.2069 21.9447 14.7606 21.9447 15.6414C21.9447 16.5222 21.7452 17.0759 21.6192 17.2221ZM6.96225 14.0606C7.80693 14.092 8.48468 14.789 8.48468 15.6414C8.48468 16.4938 7.80693 17.1908 6.96225 17.2221C6.83621 17.0759 6.63672 16.5222 6.63672 15.6414C6.63659 14.7606 6.83607 14.2067 6.96225 14.0606Z" fill="black"/>
<path d="M37.4556 23.5315C37.4556 22.3063 36.4589 21.3096 35.2337 21.3096C34.0085 21.3096 33.0117 22.3063 33.0117 23.5315C33.0117 24.7567 34.0085 25.7535 35.2337 25.7535C36.4589 25.7535 37.4556 24.7567 37.4556 23.5315ZM34.3397 23.5315C34.3397 23.0387 34.7408 22.6377 35.2335 22.6377C35.7263 22.6377 36.1274 23.0387 36.1274 23.5315C36.1274 24.0244 35.7263 24.4254 35.2335 24.4254C34.7408 24.4254 34.3397 24.0245 34.3397 23.5315Z" fill="black"/>
</svg>
