<?xml version="1.0" encoding="UTF-8" standalone="no"?> <svg width="712" height="712" viewBox="-50 -100 712 712" fill="none" xmlns="http://www.w3.org/2000/svg">
<path d="M466.605 45.3938C451.497 30.2858 431.407 21.9648 410.036 21.9648C388.666 21.9648 368.576 30.2858 353.467 45.3938L172.872 225.989C156.771 242.089 145.34 262.28 139.811 284.379L130.413 321.966C127.289 334.487 120.807 345.938 111.665 355.079L25.371 441.374C19.328 447.416 16 455.452 16 464C16 472.549 19.328 480.585 25.37 486.627C31.404 492.661 39.436 495.99 48.006 495.999C56.559 495.99 64.591 492.661 70.625 486.627L156.921 400.332C166.062 391.191 177.512 384.708 190.037 381.584L227.621 372.186C249.719 366.658 269.909 355.226 286.01 339.125L466.606 158.53C497.797 127.339 497.797 76.5848 466.605 45.3938ZM59.311 475.314C56.294 478.331 52.274 479.995 48.006 480C43.722 479.995 39.701 478.331 36.684 475.314C33.663 472.294 32 468.276 32 464C32 459.725 33.663 455.707 36.685 452.687L87.596 401.776L110.223 424.403L59.311 475.314ZM274.695 327.812C260.644 341.863 243.024 351.84 223.739 356.665L186.16 366.062C170.823 369.888 156.8 377.827 145.606 389.02L121.536 413.09L98.909 390.463L122.979 366.393C134.171 355.2 142.111 341.177 145.935 325.844L155.332 288.262C160.157 268.976 170.134 251.355 184.186 237.304L353.466 68.0218L443.976 158.532L274.695 327.812ZM455.291 147.217L364.781 56.7068C376.869 44.6208 392.94 37.9648 410.036 37.9648C427.133 37.9648 443.205 44.6218 455.291 56.7078C480.244 81.6608 480.244 122.263 455.291 147.217Z" fill="black"/>
<path d="M405.087 142.268L369.731 106.912C365.387 102.568 359.611 100.176 353.468 100.176C347.324 100.176 341.548 102.569 337.204 106.913L233.966 210.149C224.999 219.117 224.999 233.708 233.966 242.676L269.321 278.031H269.322C273.805 282.514 279.695 284.756 285.585 284.756C291.476 284.756 297.365 282.514 301.85 278.03L405.087 174.792C414.054 165.826 414.054 151.235 405.087 142.268ZM393.772 163.48L290.536 266.718C287.806 269.448 283.365 269.447 280.635 266.718H280.636L245.281 231.363C242.552 228.634 242.552 224.193 245.281 221.463L348.519 118.226C349.84 116.904 351.598 116.176 353.468 116.176C355.337 116.176 357.095 116.905 358.417 118.226L393.772 153.581C396.502 156.31 396.502 160.751 393.772 163.48Z" fill="black"/>
<path d="M183.762 271.668C176.207 279.223 172.046 289.268 172.046 299.952C172.046 310.636 176.207 320.681 183.762 328.236C191.561 336.034 201.804 339.933 212.046 339.933C222.289 339.933 232.532 336.034 240.33 328.236C240.331 328.236 240.331 328.236 240.331 328.236C255.926 312.64 255.926 287.263 240.331 271.668C224.734 256.073 199.36 256.071 183.762 271.668ZM229.017 316.923C219.662 326.278 204.434 326.28 195.077 316.923C190.544 312.39 188.047 306.363 188.047 299.952C188.047 293.541 190.544 287.514 195.077 282.981C199.756 278.302 205.9 275.963 212.048 275.963C218.193 275.963 224.34 278.303 229.018 282.981C238.374 292.339 238.374 307.565 229.017 316.923Z" fill="black"/>
<path d="M364.782 158.529L359.125 164.186C356 167.31 356 172.375 359.124 175.5C360.686 177.062 362.733 177.843 364.781 177.843C366.828 177.843 368.876 177.062 370.437 175.5L376.094 169.843C379.219 166.719 379.219 161.654 376.095 158.529C372.972 155.407 367.906 155.406 364.782 158.529Z" fill="black"/>
<path d="M342.153 181.157L336.497 186.814C333.373 189.939 333.373 195.004 336.498 198.128C338.06 199.69 340.106 200.471 342.154 200.471C344.202 200.471 346.249 199.69 347.811 198.128L353.467 192.471C356.591 189.346 356.591 184.281 353.466 181.157C350.344 178.033 345.278 178.033 342.153 181.157Z" fill="black"/>
<path d="M319.527 203.785L313.87 209.442C310.745 212.566 310.745 217.631 313.869 220.756C315.431 222.318 317.478 223.099 319.526 223.099C321.573 223.099 323.621 222.318 325.182 220.756L330.839 215.099C333.964 211.975 333.964 206.91 330.84 203.785C327.717 200.663 322.651 200.662 319.527 203.785Z" fill="black"/>
</svg>
