<svg width="22" height="27" viewBox="0 0 22 27" fill="none" xmlns="http://www.w3.org/2000/svg">
<path d="M11 13.5C11.6875 13.5 12.2762 13.255 12.7662 12.765C13.2562 12.275 13.5008 11.6867 13.5 11C13.5 10.3125 13.255 9.72375 12.765 9.23375C12.275 8.74375 11.6867 8.49917 11 8.5C10.3125 8.5 9.72375 8.745 9.23375 9.235C8.74375 9.725 8.49917 10.3133 8.5 11C8.5 11.6875 8.745 12.2763 9.235 12.7663C9.725 13.2563 10.3133 13.5008 11 13.5ZM11 25.5313C10.8333 25.5313 10.6667 25.5 10.5 25.4375C10.3333 25.375 10.1875 25.2917 10.0625 25.1875C7.02083 22.5 4.75 20.005 3.25 17.7025C1.75 15.4 1 13.2492 1 11.25C1 8.125 2.00542 5.63542 4.01625 3.78125C6.02708 1.92708 8.355 1 11 1C13.6458 1 15.9742 1.92708 17.985 3.78125C19.9958 5.63542 21.0008 8.125 21 11.25C21 13.25 20.25 15.4013 18.75 17.7038C17.25 20.0063 14.9792 22.5008 11.9375 25.1875C11.8125 25.2917 11.6667 25.375 11.5 25.4375C11.3333 25.5 11.1667 25.5313 11 25.5313Z" stroke="#1963C6" stroke-width="2"/>
</svg>
