<svg width="64" height="65" viewBox="0 0 64 65" fill="none" xmlns="http://www.w3.org/2000/svg">
<g opacity="0.8">
<path d="M28 21.9997C28 24.2057 29.794 25.9997 32 25.9997C34.206 25.9997 36 24.2057 36 21.9997C36 19.7937 34.206 17.9997 32 17.9997C31.948 17.9997 31.9 18.0127 31.849 18.0147L30.859 14.7137C30.701 14.1857 30.143 13.8867 29.614 14.0437C29.085 14.2027 28.785 14.7597 28.943 15.2897L29.934 18.5927C28.78 19.2947 28 20.5527 28 21.9997ZM34 21.9997C34 23.1027 33.103 23.9997 32 23.9997C30.897 23.9997 30 23.1027 30 21.9997C30 20.8967 30.897 19.9997 32 19.9997C33.103 19.9997 34 20.8967 34 21.9997Z" fill="black"/>
<path d="M59.332 43.943C59.732 43.802 60 43.424 60 43V33C60 32.676 59.843 32.372 59.578 32.184C59.311 31.996 58.974 31.948 58.668 32.057L58 32.292V22C58 19.243 55.757 17 53 17H48.949C48.427 8.092 41.036 1 32 1C22.964 1 15.573 8.092 15.051 17H11C8.243 17 6 19.243 6 22V46.089L5.092 46.005C4.816 45.978 4.534 46.072 4.326 46.262C4.118 46.452 4 46.719 4 47V57C4 57.517 4.394 57.948 4.908 57.996L6.01 58.098C6.063 60.808 8.277 63 11 63H53C53.422 63 53.842 62.947 54.249 62.843C54.414 62.801 54.549 62.711 54.666 62.603L58.908 62.996C58.938 62.999 58.97 63 59 63C59.248 63 59.488 62.908 59.674 62.739C59.882 62.549 60 62.281 60 62V52C60 51.483 59.606 51.052 59.092 51.004L58 50.903V44.412L59.332 43.943ZM58 42.292L38.773 49.057C38.736 49.07 38.711 49.098 38.677 49.114L27.301 48.061C27.205 48.03 27.107 48 27 48C26.96 48 26.927 48.018 26.888 48.023L20.894 47.468L31 43.912V46C31 46.552 31.447 47 32 47C32.553 47 33 46.552 33 46V43.208L36 42.152V43C36 43.552 36.447 44 37 44C37.553 44 38 43.552 38 43V41.449L41 40.393V43C41 43.552 41.447 44 42 44C42.553 44 43 43.552 43 43V39.69L46 38.634V40C46 40.552 46.447 41 47 41C47.553 41 48 40.552 48 40V38C48 37.977 47.988 37.958 47.987 37.935L51 36.875V40C51 40.552 51.447 41 52 41C52.553 41 53 40.552 53 40V36.171L58 34.412V42.292ZM43.395 49.551L52 46.523V50.348L43.395 49.551ZM32 3C39.934 3 46.431 9.195 46.949 17H44.949C44.706 13.829 43.331 10.971 41.214 8.841C41.205 8.831 41.202 8.817 41.192 8.807C41.182 8.797 41.169 8.794 41.158 8.785C38.807 6.448 35.57 5 32 5C28.43 5 25.193 6.448 22.841 8.785C22.831 8.794 22.817 8.797 22.807 8.807C22.797 8.817 22.794 8.83 22.785 8.841C20.668 10.97 19.294 13.829 19.05 17H17.05C17.569 9.195 24.066 3 32 3ZM8 22C8 20.346 9.346 19 11 19H23C23.553 19 24 18.552 24 18C24 17.448 23.553 17 23 17H21.051C21.258 14.717 22.162 12.634 23.552 10.966L24.929 12.343C25.124 12.538 25.38 12.636 25.636 12.636C25.892 12.636 26.148 12.538 26.343 12.343C26.734 11.953 26.734 11.32 26.343 10.929L24.966 9.552C26.634 8.161 28.717 7.258 31 7.051V9C31 9.552 31.447 10 32 10C32.553 10 33 9.552 33 9V7.051C35.283 7.258 37.366 8.162 39.034 9.553L37.657 10.93C37.266 11.321 37.266 11.954 37.657 12.344C37.852 12.539 38.108 12.637 38.364 12.637C38.62 12.637 38.876 12.539 39.071 12.344L40.448 10.967C41.839 12.634 42.742 14.718 42.949 17.001H41C40.447 17.001 40 17.449 40 18.001C40 18.553 40.447 19.001 41 19.001H53C54.654 19.001 56 20.347 56 22.001V32.996L54 33.7V32C54 31.448 53.553 31 53 31C52.447 31 52 31.448 52 32V34C52 34.133 52.029 34.26 52.076 34.376L17.668 46.482C17.366 46.588 17.162 46.831 17.067 47.113L12 46.644V23H19.5C20.879 23 22 24.122 22 25.5C22 27.981 24.019 30 26.5 30H37.5C39.981 30 42 27.981 42 25.5C42 24.122 43.121 23 44.5 23H52V28C52 28.552 52.447 29 53 29C53.553 29 54 28.552 54 28V22C54 21.448 53.553 21 53 21H44.5C42.019 21 40 23.019 40 25.5C40 26.878 38.879 28 37.5 28H26.5C25.121 28 24 26.878 24 25.5C24 23.019 21.981 21 19.5 21H11C10.447 21 10 21.448 10 22V46.459L8 46.274V22ZM11 61C9.443 61 8.175 59.804 8.029 58.285L37.356 61H11ZM58 60.903L6 56.088V48.096L11 48.559V52C11 52.552 11.447 53 12 53C12.553 53 13 52.552 13 52V48.745L16 49.023V51C16 51.552 16.447 52 17 52C17.553 52 18 51.552 18 51V49.208L21 49.486V53C21 53.552 21.447 54 22 54C22.553 54 23 53.552 23 53V49.671L26 49.949V52C26 52.552 26.447 53 27 53C27.553 53 28 52.552 28 52V50.134L31 50.412V54C31 54.552 31.447 55 32 55C32.553 55 33 54.552 33 54V50.597L36 50.875V53C36 53.552 36.447 54 37 54C37.553 54 38 53.552 38 53V51.06L41 51.338V55C41 55.552 41.447 56 42 56C42.553 56 43 55.552 43 55V51.523L46 51.801V54C46 54.552 46.447 55 47 55C47.553 55 48 54.552 48 54V51.986L51 52.264V56C51 56.552 51.447 57 52 57C52.553 57 53 56.552 53 56V52.449L58 52.912V60.903ZM56 50.718L54 50.533V46C54 45.94 53.976 45.888 53.966 45.831L56 45.116V50.718Z" fill="black"/>
</g>
</svg>
