<svg xmlns="http://www.w3.org/2000/svg" viewBox="0 0 119.05 119.05"><defs><style>.cls-1{fill:#e4f4f3;}.cls-2{fill:#383838;}.cls-3{fill:#f0f2f2;}.cls-4{fill:#fff;}</style></defs><g id="Layer_2" data-name="Layer 2"><g id="OBJECTS"><circle class="cls-1" cx="59.52" cy="59.52" r="59.52"/><path class="cls-2" d="M96.89,96.31a22.07,22.07,0,0,0-15.2-15.26l-13.6-3.88H51l-13.6,3.88a22.09,22.09,0,0,0-15.2,15.26l-3.74,6.24a59.46,59.46,0,0,0,82.22,0Z"/><path class="cls-3" d="M67.53,66.23h-16L49,79.45s4.52,4.73,10.53,5c6-.25,10.54-5,10.54-5Z"/><path class="cls-4" d="M77.44,47.68c0,10.84-8,25.34-17.92,25.34S41.6,58.52,41.6,47.68s8-19.61,17.92-19.61S77.44,36.85,77.44,47.68Z"/><path class="cls-4" d="M43.87,49.2c-.08,2.11-1.34,4.9-2.76,4.85S38.67,51.11,38.75,49s1.3-3.79,2.72-3.73S44,47.08,43.87,49.2Z"/><path class="cls-4" d="M80,49c.07,2.11-1,5-2.39,5s-2.66-2.75-2.73-4.87,1-3.87,2.43-3.92S79.89,46.89,80,49Z"/><path class="cls-2" d="M63.06,40.84c4.13,1.8,5.92,3.47,10.42,3.72,3.56,8.09,1.33,17.77-4.77,24.16,4.56,2.13,11,1.19,14.07-2.77,6.75-8.58,2-23.51-3.16-31.73-4.33-6.91-11.33-12.35-19.36-13.71a9.11,9.11,0,0,0-5.93.58c-2.2,1.22-3.32,3.85-3.42,6.37C50.67,34.11,57,38.19,63.06,40.84Z"/><path class="cls-2" d="M56.58,32.79s-7,2.83-10.68,7.37c-7.15,8.83-2,21.21,2.23,26.07,0,0-10.52,8.46-15.7-4C24.69,43.68,42.53,21.42,55,26.47,70.24,32.64,56.58,32.79,56.58,32.79Z"/></g></g></svg>