<svg xmlns="http://www.w3.org/2000/svg" viewBox="0 0 119.05 119.05"><defs><style>.cls-1{fill:#e4f4f3;}.cls-2{fill:#383838;}.cls-3{fill:#f0f2f2;}.cls-4{fill:#fff;}.cls-5{fill:none;}</style></defs><g id="Layer_2" data-name="Layer 2"><g id="OBJECTS"><circle class="cls-1" cx="59.52" cy="59.52" r="59.52"/><path class="cls-2" d="M96.89,96.31a22.07,22.07,0,0,0-15.2-15.26l-13.6-3.88H51l-13.6,3.88a22.09,22.09,0,0,0-15.2,15.26l-3.74,6.24a59.46,59.46,0,0,0,82.22,0Z"/><path class="cls-3" d="M67.53,66.23h-16L49,79.45s4.52,4.73,10.53,5c6-.25,10.54-5,10.54-5Z"/><path class="cls-4" d="M77.44,47.68c0,10.84-8,25.34-17.92,25.34S41.6,58.52,41.6,47.68s8-19.61,17.92-19.61S77.44,36.85,77.44,47.68Z"/><path class="cls-4" d="M43.87,49.2c-.08,2.11-1.34,4.9-2.76,4.85S38.67,51.11,38.75,49s1.3-3.79,2.72-3.73S44,47.08,43.87,49.2Z"/><path class="cls-4" d="M80,49c.07,2.11-1,5-2.39,5s-2.66-2.75-2.73-4.87,1-3.87,2.43-3.92S79.89,46.89,80,49Z"/><path class="cls-5" d="M67.05,34.52A2.8,2.8,0,0,0,68.37,36a11.48,11.48,0,0,0,1.84.76,7.61,7.61,0,0,1,2.16,1.15,3.43,3.43,0,0,1,1.26,2"/><path class="cls-2" d="M45.69,28.82c-3.07,7,9.43,6.63,12.94,6.21a9.61,9.61,0,0,1,2.71-.24c1,.16,1.91.67,2.91.82a14.3,14.3,0,0,0,6.56-.51A2,2,0,0,1,72.28,35a1.87,1.87,0,0,1,.64.64,12.88,12.88,0,0,1,2,3.85A19.59,19.59,0,0,1,75,45.6c-.06,1.27-.16,5.77,1.49,6.07.25-2.13.49-4.28.74-6.41,0,0,1.78-6.44,1.15-9.81-1-5.26-4.79-11.78-20-11.62C47.84,23.94,45.7,28.8,45.69,28.82Z"/><path class="cls-2" d="M50.06,32.53a.93.93,0,0,1-.26.47,3.67,3.67,0,0,1-1.4.65c-1.54.6-2.48,2.11-3.32,3.54a6.83,6.83,0,0,0-1.16,2.92c-.09,1.45.72,2.72.91,4.12a7.56,7.56,0,0,1-.41,3.16c-.14.49-1.21,4.71-2.08,4.27l-.74-6.4s-1.78-6.44-1.16-9.81,2.22-7.22,6.27-6.11C47.54,29.57,50.28,31.27,50.06,32.53Z"/></g></g></svg>